# Blender v2.82 (sub 7) OBJ File: 'cables_set.blend'
# www.blender.org
g connector.001_Cube.003
v -0.200000 -0.200000 -0.250000
v -0.200000 0.200000 -0.250000
v 0.200000 -0.200000 -0.250000
v 0.200000 0.200000 -0.250000
v -0.200000 -0.200000 0.125822
v -0.200000 0.200000 0.125822
v 0.200000 -0.200000 0.125822
v 0.200000 0.200000 0.125822
v -0.200000 -0.064906 0.000700
v -0.200000 0.000725 0.063970
v 0.200000 0.064467 0.000228
v 0.200000 0.000253 -0.064931
v 0.200000 -0.064906 0.000700
v 0.200000 0.000725 0.063970
v 0.000075 0.200000 -0.064613
v 0.064834 0.200000 0.000146
v 0.000075 0.200000 0.064905
v -0.064684 0.200000 -0.000127
v 0.000075 -0.200000 -0.064613
v 0.064834 -0.200000 0.000146
v 0.000075 -0.200000 0.064905
v -0.064684 -0.200000 -0.000127
v -0.250000 0.064467 0.000228
v -0.250000 0.000253 -0.064931
v -0.250000 -0.064906 0.000700
v -0.250000 0.000725 0.063970
v 0.250000 0.064467 0.000228
v 0.250000 0.000253 -0.064931
v 0.250000 -0.064906 0.000700
v 0.250000 0.000725 0.063970
v 0.000075 0.250000 -0.064613
v 0.064834 0.250000 0.000146
v 0.000075 0.250000 0.064905
v -0.064684 0.250000 -0.000127
v 0.000075 -0.250000 -0.064613
v 0.064834 -0.250000 0.000146
v 0.000075 -0.250000 0.064905
v -0.200000 0.000253 -0.064931
v -0.064684 -0.250000 -0.000127
v -0.200000 0.064467 0.000228
vt 0.272139 0.656875
vt 0.215886 0.656875
vt 0.244023 0.630803
vt 0.194233 0.562711
vt 0.185003 0.571874
vt 0.158977 0.543712
vt 0.293792 0.562711
vt 0.284894 0.571941
vt 0.276195 0.543712
vt 0.348785 0.657315
vt 0.358915 0.643545
vt 0.365719 0.644209
vt 0.215886 0.486803
vt 0.272139 0.486803
vt 0.244023 0.512875
vt 0.194167 0.580905
vt 0.203131 0.571941
vt 0.211829 0.599965
vt 0.382435 0.526315
vt 0.366137 0.532723
vt 0.383077 0.519630
vt 0.276195 0.599965
vt 0.293858 0.580905
vt 0.329048 0.599965
vt 0.352343 0.633781
vt 0.353016 0.627064
vt 0.272139 0.604022
vt 0.244023 0.612589
vt 0.215886 0.604022
vt 0.303013 0.656635
vt 0.296592 0.640298
vt 0.303669 0.649904
vt 0.215886 0.539656
vt 0.244023 0.531089
vt 0.272139 0.539656
vt 0.306456 0.633745
vt 0.342753 0.640773
vt 0.389168 0.536119
vt 0.372916 0.533401
vt 0.383349 0.593780
vt 0.367096 0.591069
vt 0.376645 0.583966
vt 0.377335 0.577273
vt 0.360319 0.590395
vt 0.336029 0.640046
vt 0.307230 0.626954
vt 0.289921 0.639637
vt 0.390103 0.594448
vt 0.320165 0.643918
vt 0.379637 0.543221
vt 0.379038 0.549925
vt 0.373162 0.607552
vt 0.395922 0.536787
vt 0.373796 0.600863
vt 0.349444 0.650653
vt 0.313461 0.643209
vt 0.263014 0.590840
vt 0.225011 0.552837
vt 0.263014 0.552837
vt 0.234915 0.621734
vt 0.253130 0.621696
vt 0.211829 0.543712
vt 0.158977 0.599965
vt 0.329048 0.543712
vt 0.303021 0.571874
vt 0.253130 0.521982
vt 0.234916 0.521943
vt 0.225011 0.590840
vn 0.0000 1.0000 0.0000
vn -1.0000 0.0000 0.0000
vn 1.0000 -0.0000 0.0000
vn 0.0000 -0.9999 0.0110
vn -0.0000 0.0092 1.0000
vn 0.0000 -1.0000 0.0000
vn -1.0000 0.0000 -0.0021
vn 0.0011 0.0000 -1.0000
vn 0.0000 1.0000 0.0036
vn 0.0000 0.0018 -1.0000
vn -0.0011 0.0000 1.0000
vn 0.0000 0.0000 1.0000
s 1
f 4/1/1 2/2/1 15/3/1
f 9/4/2 38/5/2 1/6/2
f 13/7/3 14/8/3 7/9/3
f 13/10/4 30/11/5 14/12/5
f 1/13/6 3/14/6 19/15/6
f 40/16/2 10/17/2 6/18/2
f 34/19/7 15/20/8 18/21/7
f 8/22/3 11/23/3 4/24/3
f 14/12/5 27/25/9 11/26/9
f 8/27/1 17/28/1 6/29/1
f 38/30/10 25/31/4 24/32/10
f 5/33/6 21/34/6 7/35/6
f 26/36/2 24/32/2 25/31/2
f 30/11/3 28/37/3 27/25/3
f 33/38/1 31/39/1 34/19/1
f 37/40/6 35/41/6 36/42/6
f 20/43/3 35/41/8 19/44/8
f 11/26/9 28/37/10 12/45/10
f 10/46/5 25/31/4 9/47/4
f 21/48/11 36/42/3 20/43/3
f 40/49/9 26/36/5 10/46/5
f 15/20/8 32/50/3 16/51/3
f 22/52/7 37/40/11 21/48/11
f 16/51/3 33/38/11 17/53/11
f 19/44/8 39/54/7 22/52/7
f 17/53/11 34/19/7 18/21/7
f 13/10/4 28/37/10 29/55/4
f 38/30/10 23/56/9 40/49/9
f 8/57/12 5/58/12 7/59/12
f 2/2/1 6/29/1 18/60/1
f 15/3/1 16/61/1 4/1/1
f 16/61/1 8/27/1 4/1/1
f 2/2/1 18/60/1 15/3/1
f 5/62/2 6/18/2 10/17/2
f 5/62/2 10/17/2 9/4/2
f 38/5/2 2/63/2 1/6/2
f 5/62/2 9/4/2 1/6/2
f 3/64/3 4/24/3 12/65/3
f 3/64/3 12/65/3 13/7/3
f 14/8/3 8/22/3 7/9/3
f 7/9/3 3/64/3 13/7/3
f 13/10/4 29/55/4 30/11/5
f 3/14/6 7/35/6 20/66/6
f 19/15/6 22/67/6 1/13/6
f 22/67/6 5/33/6 1/13/6
f 3/14/6 20/66/6 19/15/6
f 6/18/2 2/63/2 40/16/2
f 2/63/2 38/5/2 40/16/2
f 34/19/7 31/39/8 15/20/8
f 8/22/3 14/8/3 11/23/3
f 11/23/3 12/65/3 4/24/3
f 14/12/5 30/11/5 27/25/9
f 8/27/1 16/61/1 17/28/1
f 17/28/1 18/60/1 6/29/1
f 38/30/10 9/47/4 25/31/4
f 5/33/6 22/67/6 21/34/6
f 21/34/6 20/66/6 7/35/6
f 26/36/2 23/56/2 24/32/2
f 30/11/3 29/55/3 28/37/3
f 33/38/1 32/50/1 31/39/1
f 37/40/6 39/54/6 35/41/6
f 20/43/3 36/42/3 35/41/8
f 11/26/9 27/25/9 28/37/10
f 10/46/5 26/36/5 25/31/4
f 21/48/11 37/40/11 36/42/3
f 40/49/9 23/56/9 26/36/5
f 15/20/8 31/39/8 32/50/3
f 22/52/7 39/54/7 37/40/11
f 16/51/3 32/50/3 33/38/11
f 19/44/8 35/41/8 39/54/7
f 17/53/11 33/38/11 34/19/7
f 13/10/4 12/45/10 28/37/10
f 38/30/10 24/32/10 23/56/9
f 8/57/12 6/68/12 5/58/12
