# Blender v2.82 (sub 7) OBJ File: 'cables_set.blend'
# www.blender.org
g dashboard.001_Cube.001
v 0.864696 1.325263 0.750000
v 0.864696 -1.325263 0.750000
v -0.864696 -1.325263 0.750000
v -0.864696 1.325263 0.750000
v 0.653106 -0.315814 0.750000
v 0.653106 -0.840610 0.750000
v -0.653106 -0.315814 0.750000
v -0.653106 -0.840610 0.750000
v 0.968399 1.468399 -0.250000
v 0.968399 -1.468399 -0.250000
v -0.968399 1.468399 -0.250000
v -0.968399 -1.468399 -0.250000
v 0.968399 1.468399 0.671133
v 0.968399 -1.468399 0.671133
v -0.968399 1.468399 0.671133
v -0.968399 -1.468399 0.671133
v -0.573659 0.010443 0.748481
v -0.609138 0.010443 0.786858
v -0.607189 -0.070504 0.748481
v -0.632276 -0.045417 0.786858
v -0.688137 -0.104034 0.748481
v -0.688136 -0.068556 0.786858
v -0.769084 -0.070504 0.748481
v -0.743997 -0.045417 0.786858
v -0.802614 0.010443 0.748481
v -0.767135 0.010443 0.786858
v -0.769084 0.091391 0.748481
v -0.743997 0.066304 0.786858
v -0.688137 0.124921 0.748481
v -0.688137 0.089442 0.786858
v -0.607189 0.091391 0.748481
v -0.632276 0.066304 0.786858
v -0.591037 0.010443 0.786858
v -0.619477 -0.058216 0.786858
v -0.688136 -0.086656 0.786858
v -0.756796 -0.058216 0.786858
v -0.785236 0.010443 0.786858
v -0.756796 0.079103 0.786858
v -0.688137 0.107543 0.786858
v -0.619477 0.079103 0.786858
v -0.611142 0.010443 0.774708
v -0.632276 -0.045417 0.774708
v -0.688137 -0.066551 0.774708
v -0.743997 -0.045417 0.774708
v -0.765131 0.010443 0.774708
v -0.743997 0.066304 0.774708
v -0.688137 0.087438 0.774708
v -0.632276 0.066304 0.774708
v 0.598211 -0.808485 0.651235
v -0.598211 -0.808485 0.651235
v -0.598211 -0.347939 0.651235
v 0.598211 -0.347939 0.651235
v -0.598211 0.316887 0.077625
v 0.598211 0.316887 0.077625
v 0.598211 -1.399681 0.077625
v -0.598211 -1.399681 0.077625
v 0.598211 -1.399681 0.651235
v -0.598211 -1.399681 0.651235
v -0.598211 0.316887 0.651235
v 0.598211 0.316887 0.651235
v -0.688137 0.010443 0.771164
vt 0.422938 0.308343
vt 0.141834 0.444591
vt 0.142608 0.306769
vt 0.558121 0.845216
vt 0.434652 0.460039
vt 0.558121 0.460039
vt 0.419701 0.467425
vt 0.144058 0.465877
vt 0.421925 0.859118
vt 0.144058 0.836284
vt 0.419701 0.837831
vt 0.129107 0.458492
vt 0.434652 0.845216
vt 0.140820 0.995365
vt 0.421151 0.996939
vt 0.772006 0.840320
vt 0.742083 0.985346
vt 0.740284 0.618275
vt 0.956166 0.843778
vt 0.987124 0.989177
vt 0.956811 0.921458
vt 0.987241 0.619950
vt 0.771875 0.918392
vt 0.795278 0.287822
vt 0.795279 0.401516
vt 0.712137 0.401516
vt 0.129107 0.843669
vt 0.005638 0.458492
vt 0.851469 0.871059
vt 0.861664 0.863028
vt 0.860699 0.868960
vt 0.866823 0.875496
vt 0.868712 0.874156
vt 0.848389 0.888286
vt 0.840549 0.877795
vt 0.846369 0.879030
vt 0.848649 0.879417
vt 0.852796 0.872952
vt 0.856334 0.893501
vt 0.868989 0.896676
vt 0.855222 0.899375
vt 0.850301 0.886941
vt 0.876830 0.884596
vt 0.870879 0.883479
vt 0.918602 0.888669
vt 0.921411 0.882668
vt 0.919874 0.891073
vt 0.864303 0.889568
vt 0.865648 0.891475
vt 0.860305 0.871280
vt 0.896450 0.874034
vt 0.893601 0.880219
vt 0.895101 0.871500
vt 0.900145 0.892486
vt 0.906330 0.895331
vt 0.897613 0.893835
vt 0.856775 0.891201
vt 0.919727 0.876259
vt 0.921411 0.874123
vt 0.868526 0.883056
vt 0.914909 0.870345
vt 0.908723 0.867494
vt 0.917444 0.868998
vt 0.912677 0.893584
vt 0.914819 0.895232
vt 0.902370 0.869236
vt 0.900229 0.867585
vt 0.873978 0.870463
vt 0.895346 0.886570
vt 0.893697 0.888711
vt 0.847883 0.866233
vt 0.712137 0.005873
vt 0.795278 0.005873
vt 0.795278 0.119566
vt 0.647370 0.405228
vt 0.712137 0.405228
vt 0.342972 0.119568
vt 0.346684 0.287823
vt 0.342972 0.287823
vt 0.647369 0.002162
vt 0.647369 0.005873
vt 0.995825 0.287822
vt 0.992113 0.119566
vt 0.995825 0.119566
vt 0.908972 0.287822
vt 0.908972 0.119566
vt 0.440179 0.119567
vt 0.553874 0.287822
vt 0.440180 0.287823
vt 0.992114 0.287821
vt 0.346683 0.119568
vt 0.912190 0.881836
vt 0.919764 0.882519
vt 0.917596 0.888292
vt 0.908612 0.869129
vt 0.907940 0.876745
vt 0.902549 0.870273
vt 0.895236 0.880330
vt 0.902851 0.880998
vt 0.896383 0.886391
vt 0.907105 0.886084
vt 0.906440 0.893697
vt 0.900639 0.891493
vt 0.843189 0.891622
vt 0.422165 0.446165
vt 0.141594 0.857543
vt 0.647370 0.401517
vt 0.553874 0.401517
vt 0.005638 0.843669
vt 0.553873 0.119567
vt 0.553873 0.005873
vt 0.712137 0.002162
vt 0.918669 0.876449
vt 0.914414 0.871339
vt 0.897444 0.874528
vt 0.912498 0.892548
vn -0.7071 0.7071 0.0000
vn 0.6241 0.6359 0.4541
vn 0.7071 0.7071 0.0000
vn -0.7071 -0.7071 0.0000
vn -0.6241 0.6359 0.4541
vn -0.3478 0.2465 0.9046
vn 0.3478 0.2465 0.9046
vn -0.6241 -0.6359 0.4541
vn 0.3478 -0.2465 0.9046
vn -0.3478 -0.2465 0.9046
vn 0.7071 -0.7071 0.0000
vn -0.1924 -0.1754 0.9655
vn 0.0000 0.0000 1.0000
vn 0.1924 -0.1754 0.9655
vn 0.1924 0.1754 0.9655
vn -0.1924 0.1754 0.9655
vn -1.0000 0.0000 0.0000
vn -0.9827 0.0000 0.1854
vn 0.6241 -0.6359 0.4541
vn 0.0000 -0.6240 0.7814
vn 0.6441 -0.6441 0.4125
vn 0.4413 -0.4413 0.7814
vn 0.6240 -0.0000 0.7814
vn -0.6240 0.0000 0.7814
vn -0.6441 -0.6441 0.4125
vn -0.4413 -0.4413 0.7814
vn -0.4413 0.4413 0.7814
vn -0.0000 0.9110 0.4125
vn -0.6441 0.6441 0.4125
vn 0.6441 0.6441 0.4125
vn 0.4413 0.4413 0.7814
vn 0.9898 0.0000 0.1428
vn 0.7069 -0.7069 0.0213
vn 0.9867 0.0000 0.1628
vn -0.0000 0.6240 0.7814
vn -0.9898 0.0000 0.1428
vn -0.7069 0.7069 0.0213
vn -0.9867 0.0000 0.1628
vn -0.0000 0.9898 0.1428
vn 0.7069 0.7069 0.0213
vn -0.0000 0.9867 0.1628
vn 0.0000 -0.9898 0.1428
vn 0.0000 -0.9867 0.1628
vn -0.7069 -0.7069 0.0213
vn 0.9110 -0.0000 0.4125
vn -0.0000 -0.9110 0.4125
vn 0.8587 -0.1783 0.4804
vn 0.7071 0.0000 -0.7071
vn 0.4541 -0.6204 0.6395
vn 0.0000 -0.9510 0.3093
vn 0.6759 0.1291 0.7256
vn 0.0000 0.9510 0.3093
vn 0.0000 1.0000 0.0000
vn 0.0000 0.0000 -1.0000
vn 0.0317 -0.0317 0.9990
vn 0.0460 -0.0174 0.9988
vn -0.0317 -0.0317 0.9990
vn -0.0460 -0.0174 0.9988
vn -0.0317 0.0317 0.9990
vn -0.0174 0.0460 0.9988
vn 0.0317 0.0317 0.9990
vn 0.0174 0.0460 0.9988
vn -0.9110 -0.0000 0.4125
vn 0.3094 -0.2610 0.9144
vn 0.2977 0.2574 0.9193
vn 0.5489 -0.3481 0.7600
vn 0.0174 -0.0460 0.9988
vn -0.0174 -0.0460 0.9988
vn -0.0460 0.0174 0.9988
vn 0.0460 0.0174 0.9988
s 1
f 11/1/1 13/2/2 9/3/3
f 12/4/4 15/5/5 11/6/1
f 13/2/2 4/7/6 1/8/7
f 16/9/8 2/10/9 3/11/10
f 2/10/9 13/12/2 1/8/7
f 4/7/6 16/13/8 3/11/10
f 10/14/11 16/9/8 12/15/4
f 5/16/12 2/17/13 1/18/13
f 7/19/14 3/20/13 8/21/15
f 5/16/12 4/22/13 7/19/14
f 8/21/15 2/17/13 6/23/16
f 55/24/17 57/25/17 49/26/18
f 14/27/19 9/28/3 13/12/2
f 35/29/20 19/30/21 34/31/22
f 18/32/13 34/31/22 33/33/23
f 37/34/24 23/35/25 36/36/26
f 24/37/13 35/29/20 22/38/13
f 38/39/27 29/40/28 27/41/29
f 26/42/13 38/39/27 37/34/24
f 33/33/23 31/43/30 40/44/31
f 45/45/32 28/46/33 26/47/34
f 30/48/13 40/44/31 39/49/35
f 22/38/13 34/31/22 20/50/13
f 41/51/36 20/52/37 18/53/38
f 26/42/13 36/36/26 24/37/13
f 43/54/39 24/55/40 22/56/41
f 30/48/13 38/39/27 28/57/13
f 28/46/33 47/58/42 30/59/43
f 32/60/13 33/33/23 40/44/31
f 47/61/42 32/62/44 30/63/43
f 24/55/40 45/64/32 26/65/34
f 32/62/44 41/66/36 18/67/38
f 34/31/22 17/68/45 33/33/23
f 20/52/37 43/69/39 22/70/41
f 40/44/31 29/40/28 39/49/35
f 36/36/26 21/71/46 35/29/20
f 50/72/47 58/73/48 56/74/49
f 5/75/12 49/26/18 6/76/16
f 7/77/14 52/78/50 5/79/12
f 7/80/14 50/72/47 51/81/51
f 6/82/16 50/83/52 8/84/15
f 57/85/53 56/74/53 58/86/53
f 59/87/11 54/88/4 60/89/4
f 49/90/54 58/86/48 50/83/47
f 51/91/54 60/89/54 52/78/54
f 61/92/55 46/93/55 45/94/56
f 48/95/57 61/96/57 41/97/58
f 42/98/59 61/99/59 43/100/60
f 61/101/61 44/102/61 43/103/62
f 38/39/27 25/104/63 37/34/24
f 11/1/1 15/105/5 13/2/2
f 12/4/4 16/13/8 15/5/5
f 13/2/2 15/105/5 4/7/6
f 16/9/8 14/106/19 2/10/9
f 2/10/9 14/27/19 13/12/2
f 4/7/6 15/5/5 16/13/8
f 10/14/11 14/106/19 16/9/8
f 5/16/12 6/23/16 2/17/13
f 7/19/14 4/22/13 3/20/13
f 5/16/12 1/18/13 4/22/13
f 8/21/15 3/20/13 2/17/13
f 49/26/18 52/107/18 55/24/17
f 52/107/18 60/108/4 54/88/4
f 55/24/17 52/107/18 54/88/4
f 14/27/19 10/109/11 9/28/3
f 35/29/20 21/71/46 19/30/21
f 18/32/13 20/50/13 34/31/22
f 37/34/24 25/104/63 23/35/25
f 24/37/13 36/36/26 35/29/20
f 38/39/27 39/49/35 29/40/28
f 26/42/13 28/57/13 38/39/27
f 33/33/23 17/68/45 31/43/30
f 45/45/32 46/93/11 28/46/33
f 30/48/13 32/60/13 40/44/31
f 22/38/13 35/29/20 34/31/22
f 41/51/36 42/98/1 20/52/37
f 26/42/13 37/34/24 36/36/26
f 43/54/39 44/102/3 24/55/40
f 30/48/13 39/49/35 38/39/27
f 28/46/33 46/93/11 47/58/42
f 32/60/13 18/32/13 33/33/23
f 47/61/42 48/95/4 32/62/44
f 24/55/40 44/102/3 45/64/32
f 32/62/44 48/95/4 41/66/36
f 34/31/22 19/30/21 17/68/45
f 20/52/37 42/98/1 43/69/39
f 40/44/31 31/43/30 29/40/28
f 36/36/26 23/35/25 21/71/46
f 56/74/49 55/24/64 50/72/47
f 55/24/64 54/88/65 51/81/51
f 50/72/47 55/24/64 51/81/51
f 53/110/66 59/111/11 51/81/51
f 54/88/65 53/110/66 51/81/51
f 5/75/12 52/107/18 49/26/18
f 7/77/14 51/91/50 52/78/50
f 7/80/14 8/112/15 50/72/47
f 6/82/16 49/90/52 50/83/52
f 57/85/53 55/24/53 56/74/53
f 59/87/11 53/110/66 54/88/4
f 49/90/54 57/85/54 58/86/48
f 51/91/54 59/87/54 60/89/54
f 61/92/55 47/113/67 46/93/55
f 48/95/57 47/114/68 61/96/57
f 42/98/59 41/115/69 61/99/59
f 61/101/61 45/116/70 44/102/61
f 38/39/27 27/41/29 25/104/63
