# Blender v2.82 (sub 7) OBJ File: 'bench1.blend'
# www.blender.org
g lod.001_mesh.007
v 6.872175 3.277262 -1.521168
v 6.872175 2.532492 -2.124862
v 6.872175 3.544793 -1.133375
v 6.872175 0.043878 -1.894564
v 6.872175 2.952403 2.557423
v 6.872175 3.967417 2.846347
v 6.872175 8.755287 -2.948151
v 6.872175 1.572263 -2.655728
v 6.872175 4.300295 -1.821233
v 6.872175 4.143413 -2.415392
v 6.872175 3.058108 -1.157609
v 6.872175 3.773369 -2.016881
v 6.872175 1.781628 -2.042322
v 6.872175 0.587247 -1.630129
v 6.872175 0.266371 -2.324696
v 6.872175 0.594839 2.279753
v 6.872175 0.542525 1.319716
v 6.872175 3.441213 2.403394
v 6.872175 0.933929 1.860994
v 6.872175 8.633106 -3.324612
v 6.872175 0.043188 1.497655
v 6.872175 2.750243 3.086644
v 7.386418 2.750243 3.086644
v 7.386418 0.043188 1.497655
v 7.386418 3.441213 2.403394
v 7.386418 0.542525 1.319716
v 7.386418 0.594839 2.279752
v 7.386418 0.266371 -2.324696
v 7.386418 0.587247 -1.630129
v 7.386418 1.781628 -2.042322
v 7.386418 3.773369 -2.016881
v 7.386418 3.058108 -1.157609
v 7.386418 4.300295 -1.821233
v 7.386418 4.143413 -2.415392
v 7.386418 8.755287 -2.948152
v 7.386418 8.633106 -3.324613
v 7.386418 3.967417 2.846347
v 7.386418 0.933929 1.860994
v 7.386418 2.952403 2.557423
v 7.386418 0.043878 -1.894564
v 7.386418 3.544793 -1.133375
v 7.386418 1.572263 -2.655728
v 7.386418 2.532492 -2.124863
v 7.386418 3.277262 -1.521168
v 8.077589 4.408031 3.319423
v 9.227242 4.191466 3.311646
v 8.077589 3.981295 3.364461
v 9.227242 3.965446 1.170081
v 8.077589 4.175616 1.117266
v -9.209584 4.191466 3.311646
v -8.059931 4.408031 3.319423
v -8.059931 3.981295 3.364461
v -9.209584 3.965446 1.170081
v -8.059931 4.175616 1.117266
v -8.059931 3.748880 1.162304
v 8.077589 3.748880 1.162304
v -6.845078 3.277262 -1.521168
v -6.845078 2.532492 -2.124863
v -6.845078 1.572263 -2.655728
v -6.845078 3.544793 -1.133375
v -6.845078 0.043878 -1.894564
v -6.845078 2.952403 2.557423
v -6.845078 0.933929 1.860994
v -6.845078 3.967417 2.846347
v -6.845078 8.633106 -3.324613
v -6.845078 8.755287 -2.948152
v -6.845078 4.143413 -2.415392
v -6.845078 4.300295 -1.821233
v -6.845078 3.058108 -1.157609
v -6.845078 3.773369 -2.016881
v -6.845078 1.781628 -2.042322
v -6.845078 0.587247 -1.630129
v -6.845078 0.266371 -2.324696
v -6.845078 0.594839 2.279752
v -6.845078 0.542525 1.319716
v -6.845078 3.441213 2.403394
v -6.845078 0.043188 1.497655
v -6.845078 2.750243 3.086644
v -7.359322 2.750243 3.086644
v -7.359322 0.043188 1.497655
v -7.359322 8.633106 -3.324612
v -7.359322 0.933929 1.860994
v -7.359322 3.441213 2.403394
v -7.359322 0.542525 1.319716
v -7.359322 0.594839 2.279753
v -7.359322 0.266371 -2.324696
v -7.359322 0.587247 -1.630129
v -7.359322 1.781628 -2.042322
v -7.359322 3.773369 -2.016881
v -7.359322 3.058108 -1.157609
v -7.359322 4.143413 -2.415392
v -7.359322 4.300295 -1.821233
v -7.359322 1.572263 -2.655728
v -7.359322 8.755287 -2.948151
v -7.359322 3.967417 2.846347
v -7.359322 2.952403 2.557423
v -7.359322 0.043878 -1.894564
v -7.359322 3.544793 -1.133375
v -7.359322 2.532492 -2.124862
v -7.359322 3.277262 -1.521168
v 9.227243 7.942029 -2.545857
v 9.227243 8.761124 -2.734265
v -9.209585 7.942029 -2.545857
v -9.209585 8.761124 -2.734265
v 8.077591 7.411327 -2.208488
v 8.077591 9.378178 -2.656416
v -8.059933 9.378178 -2.656416
v -8.059933 7.411327 -2.208488
v -8.059933 7.316043 -2.626882
v -8.059933 9.282893 -3.074810
v 8.077591 9.282893 -3.074810
v 8.077591 7.316043 -2.626882
v 8.077589 4.160881 0.977651
v 9.227242 3.944315 0.969874
v 8.077589 3.734144 1.022688
v 9.227242 3.718295 -1.171692
v 8.077589 3.928465 -1.224506
v -9.209584 3.944315 0.969874
v -8.059931 4.160881 0.977651
v -8.059931 3.734144 1.022688
v -9.209584 3.718295 -1.171692
v -8.059931 3.928465 -1.224506
v -8.059931 3.501729 -1.179469
v 8.077589 3.501729 -1.179469
v 9.227243 5.782927 -2.054144
v 9.227243 6.602022 -2.242553
v -9.209585 5.782927 -2.054144
v -9.209585 6.602022 -2.242553
v 8.077591 5.252226 -1.716776
v 8.077591 7.219076 -2.164704
v -8.059933 7.219076 -2.164704
v -8.059933 5.252226 -1.716776
v -8.059933 5.156941 -2.135169
v -8.059933 7.123792 -2.583097
v 8.077591 7.123792 -2.583097
v 8.077591 5.156941 -2.135169
vt 0.578199 0.326593
vt 0.649291 0.373491
vt 0.634795 0.408669
vt 0.802937 0.171089
vt 0.458918 0.091747
vt 0.808276 0.124715
vt 0.808360 0.043098
vt 0.462874 0.053588
vt 0.462901 0.023596
vt 0.582618 0.853849
vt 0.632055 0.820681
vt 0.628486 0.868461
vt 0.802255 0.423665
vt 0.835615 0.543442
vt 0.802860 0.518273
vt 0.683126 0.448513
vt 0.705615 0.554039
vt 0.665942 0.544415
vt 0.847362 0.716702
vt 0.886423 0.523680
vt 0.886423 0.716702
vt 0.668479 0.655281
vt 0.720664 0.597513
vt 0.710206 0.643436
vt 0.479514 0.533017
vt 0.461127 0.566186
vt 0.445601 0.495517
vt 0.847362 0.455166
vt 0.886423 0.491036
vt 0.847362 0.491036
vt 0.886423 0.292978
vt 0.886423 0.455166
vt 0.791070 0.208619
vt 0.452838 0.120540
vt 0.898171 0.459516
vt 0.937232 0.731562
vt 0.898171 0.731562
vt 0.863224 0.239122
vt 0.880029 0.203714
vt 0.886423 0.250870
vt 0.847362 0.292978
vt 0.847362 0.250870
vt 0.631730 0.656155
vt 0.578199 0.598420
vt 0.628269 0.565786
vt 0.566451 0.533284
vt 0.525739 0.564960
vt 0.518907 0.529082
vt 0.705615 0.554039
vt 0.683126 0.448513
vt 0.721072 0.449915
vt 0.668479 0.655281
vt 0.628269 0.565786
vt 0.672009 0.566377
vt 0.720664 0.853510
vt 0.670187 0.819492
vt 0.711841 0.812417
vt 0.721072 0.251507
vt 0.681473 0.250870
vt 0.452838 0.120540
vt 0.791070 0.208619
vt 0.447990 0.158380
vt 0.732819 0.859179
vt 0.769377 0.592917
vt 0.769377 0.864964
vt 0.474252 0.634576
vt 0.535013 0.595634
vt 0.497820 0.641117
vt 0.835615 0.347292
vt 0.767029 0.285935
vt 0.801348 0.250870
vt 0.429548 0.612860
vt 0.497820 0.641117
vt 0.474252 0.634576
vt 0.898171 0.361633
vt 0.937232 0.459516
vt 0.781125 0.586650
vt 0.798179 0.555189
vt 0.817683 0.580865
vt 0.535013 0.719529
vt 0.493536 0.665070
vt 0.732819 0.470254
vt 0.761863 0.484258
vt 0.535013 0.719529
vt 0.429548 0.612860
vt 0.793655 0.345683
vt 0.429548 0.088702
vt 0.624894 0.517286
vt 0.839707 0.148502
vt 0.526338 0.280078
vt 0.673538 0.868891
vt 0.749873 0.890640
vt 0.590892 0.813835
vt 0.589583 0.644917
vt 0.817683 0.852912
vt 0.488102 0.279658
vt 0.555442 0.498639
vt 0.127646 0.058809
vt 0.215407 0.698374
vt 0.127646 0.698374
vt 0.110640 0.698374
vt 0.022880 0.058808
vt 0.110641 0.058809
vt 0.005874 0.698374
vt 0.005874 0.058808
vt 0.115591 0.743953
vt 0.024086 0.744205
vt 0.022879 0.698374
vt 0.122695 0.013234
vt 0.024088 0.012977
vt 0.017929 0.013229
vt 0.215407 0.058809
vt 0.128853 0.012977
vt 0.214200 0.012977
vt 0.010825 0.743949
vt 0.214200 0.744205
vt 0.681473 0.250870
vt 0.649291 0.373491
vt 0.649203 0.277205
vt 0.493536 0.665070
vt 0.670187 0.819492
vt 0.631730 0.656155
vt 0.479514 0.533017
vt 0.526338 0.280078
vt 0.518907 0.529082
vt 0.898171 0.361633
vt 0.937232 0.459516
vt 0.898171 0.459516
vt 0.732819 0.470254
vt 0.802255 0.423665
vt 0.761863 0.484258
vt 0.590892 0.813835
vt 0.589583 0.644917
vt 0.835615 0.543442
vt 0.802860 0.518273
vt 0.711841 0.812417
vt 0.937232 0.250870
vt 0.898171 0.317679
vt 0.898171 0.250870
vt 0.847362 0.292978
vt 0.886423 0.250870
vt 0.886423 0.292978
vt 0.624894 0.517286
vt 0.665942 0.544415
vt 0.673538 0.868891
vt 0.632055 0.820681
vt 0.578199 0.598420
vt 0.462874 0.053588
vt 0.808276 0.124715
vt 0.458918 0.091747
vt 0.721072 0.251507
vt 0.886423 0.455166
vt 0.847362 0.491036
vt 0.847362 0.455166
vt 0.525739 0.564960
vt 0.937232 0.731562
vt 0.898171 0.731562
vt 0.847362 0.716702
vt 0.886423 0.523680
vt 0.886423 0.716702
vt 0.808360 0.043098
vt 0.810261 0.087896
vt 0.802937 0.171089
vt 0.880029 0.203714
vt 0.863224 0.239122
vt 0.720664 0.597513
vt 0.429548 0.088702
vt 0.793655 0.345683
vt 0.835615 0.347292
vt 0.566451 0.533284
vt 0.732819 0.859179
vt 0.769377 0.592917
vt 0.769377 0.864964
vt 0.817683 0.852912
vt 0.781125 0.586650
vt 0.817683 0.580865
vt 0.767029 0.285935
vt 0.801348 0.250870
vt 0.839707 0.148502
vt 0.720664 0.853510
vt 0.582618 0.853849
vt 0.628486 0.868461
vt 0.461127 0.566186
vt 0.445601 0.495517
vt 0.488102 0.279658
vt 0.578199 0.326593
vt 0.634795 0.408669
vt 0.749873 0.890640
vt 0.842860 0.065273
vt 0.872951 0.005874
vt 0.555442 0.498639
vt 0.798179 0.555189
vt 0.842860 0.065273
vt 0.810261 0.087896
vt 0.244062 0.064001
vt 0.227154 0.691453
vt 0.227377 0.063996
vt 0.322477 0.691482
vt 0.339273 0.064019
vt 0.339162 0.691485
vt 0.229510 0.055800
vt 0.267405 0.019221
vt 0.322588 0.064016
vt 0.243839 0.691459
vt 0.255617 0.742541
vt 0.229262 0.699665
vt 0.267193 0.736314
vt 0.337173 0.699473
vt 0.299931 0.736322
vt 0.394980 0.736350
vt 0.362187 0.736339
vt 0.311732 0.012653
vt 0.337267 0.056043
vt 0.395019 0.019226
vt 0.417801 0.064024
vt 0.127646 0.058809
vt 0.215407 0.698374
vt 0.127646 0.698374
vt 0.110640 0.698374
vt 0.022880 0.058808
vt 0.110641 0.058809
vt 0.005874 0.698374
vt 0.005874 0.058808
vt 0.115591 0.743953
vt 0.024086 0.744205
vt 0.022879 0.698374
vt 0.122695 0.013234
vt 0.024088 0.012977
vt 0.017929 0.013229
vt 0.215407 0.058809
vt 0.128853 0.012977
vt 0.214200 0.012977
vt 0.010825 0.743949
vt 0.214200 0.744205
vt 0.672009 0.566377
vt 0.937232 0.317679
vt 0.898171 0.250870
vt 0.937232 0.250870
vt 0.244062 0.064001
vt 0.227154 0.691453
vt 0.227377 0.063996
vt 0.322477 0.691482
vt 0.339273 0.064019
vt 0.339162 0.691485
vt 0.229510 0.055800
vt 0.267405 0.019221
vt 0.322588 0.064016
vt 0.243839 0.691459
vt 0.255617 0.742541
vt 0.229262 0.699665
vt 0.267193 0.736314
vt 0.337173 0.699473
vt 0.299931 0.736322
vt 0.394980 0.736350
vt 0.362187 0.736339
vt 0.311732 0.012653
vt 0.337267 0.056043
vt 0.395019 0.019226
vt 0.417801 0.064024
vt 0.607669 0.312098
vt 0.721072 0.449915
vt 0.847362 0.523680
vt 0.447990 0.158380
vt 0.485298 0.571102
vt 0.733236 0.555189
vt 0.535013 0.595634
vt 0.937232 0.361633
vt 0.787754 0.389240
vt 0.433504 0.050543
vt 0.641967 0.452812
vt 0.885962 0.170211
vt 0.781542 0.890640
vt 0.453350 0.304367
vt 0.559202 0.306543
vt 0.109432 0.744205
vt 0.109434 0.012977
vt 0.128853 0.744205
vt 0.937232 0.361633
vt 0.787754 0.389240
vt 0.710206 0.643436
vt 0.937232 0.317679
vt 0.847362 0.250870
vt 0.641967 0.452812
vt 0.886423 0.491036
vt 0.485298 0.571102
vt 0.847362 0.523680
vt 0.462901 0.023596
vt 0.433504 0.050543
vt 0.733236 0.555189
vt 0.781542 0.890640
vt 0.885962 0.170211
vt 0.649203 0.277205
vt 0.453350 0.304367
vt 0.607669 0.312098
vt 0.885962 0.037692
vt 0.559202 0.306543
vt 0.872951 0.005874
vt 0.885962 0.037692
vt 0.300096 0.019229
vt 0.417801 0.691492
vt 0.362272 0.019232
vt 0.109432 0.744205
vt 0.109434 0.012977
vt 0.128853 0.744205
vt 0.898171 0.317679
vt 0.300096 0.019229
vt 0.417801 0.691492
vt 0.362272 0.019232
vn -1.0000 0.0000 0.0000
vn 1.0000 0.0000 0.0000
vn 0.0000 -0.1985 -0.9801
vn -0.0000 -0.0533 -0.9986
vn -0.0000 -0.0775 -0.9970
vn 0.0000 -0.6216 -0.7833
vn 0.0000 0.8099 0.5866
vn 0.0000 0.9537 -0.3007
vn -0.0000 0.5960 -0.8030
vn -0.0000 0.0135 -0.9999
vn 0.0000 0.4734 0.8808
vn 0.0000 0.2452 0.9695
vn 0.0000 -0.8598 0.5107
vn -0.0000 -0.8369 -0.5473
vn 0.0000 0.6732 0.7394
vn 0.0000 -0.0816 0.9967
vn 0.0000 0.1937 0.9811
vn -0.0000 -0.9716 -0.2365
vn -0.0000 -0.7068 -0.7074
vn 0.0000 -0.1365 0.9906
vn 0.0000 -0.0867 0.9962
vn 0.0000 0.6297 -0.7768
vn -0.0000 0.9512 -0.3087
vn 0.0000 -0.9532 0.3022
vn 0.0000 -0.6110 0.7916
vn -0.0747 -0.6441 0.7613
vn 0.0747 -0.7888 -0.6101
vn 0.0747 -0.6441 0.7613
vn 0.0747 0.7888 0.6101
vn -0.0747 0.6441 -0.7613
vn -0.0747 0.7888 0.6101
vn -0.0747 -0.7888 -0.6101
vn 0.8503 0.0552 0.5234
vn 0.8503 -0.0552 -0.5234
vn 0.0747 0.6441 -0.7613
vn -0.8503 0.0552 0.5234
vn -0.8503 -0.0552 -0.5234
vn 0.2129 -0.5455 0.8106
vn -0.2141 -0.8421 -0.4949
vn 0.2141 -0.8421 -0.4949
vn -0.2112 0.8428 0.4951
vn 0.2121 0.5447 -0.8114
vn -0.2121 0.5447 -0.8114
vn 0.9510 -0.3008 0.0715
vn 0.2112 0.8428 0.4951
vn -0.2129 -0.5455 0.8106
vn -0.9510 -0.3008 0.0715
vn -0.9502 0.3039 -0.0696
vn 0.9502 0.3039 -0.0696
s 1
f 11/1/1 2/2/1 13/3/1
f 9/4/1 20/5/1 10/6/1
f 33/7/2 36/8/2 35/9/2
f 26/10/2 27/11/2 24/12/2
f 36/8/3 10/6/4 20/5/3
f 43/13/2 34/14/2 31/15/2
f 8/16/5 28/17/6 15/18/6
f 14/19/7 26/20/8 29/21/7
f 22/22/1 18/23/1 5/24/1
f 40/25/2 28/26/2 29/27/2
f 19/28/9 26/29/8 17/30/8
f 19/28/9 39/31/10 38/32/9
f 33/33/11 7/34/12 9/4/11
f 11/35/13 25/36/14 18/37/14
f 41/38/15 9/4/11 3/39/15
f 25/40/14 5/41/10 18/42/14
f 23/43/2 25/44/2 37/45/2
f 14/46/1 15/47/1 4/48/1
f 73/49/6 93/50/5 59/51/5
f 79/52/16 64/53/17 95/54/17
f 17/55/1 16/56/1 19/57/1
f 34/58/4 8/16/5 10/59/4
f 15/47/6 40/25/18 4/48/18
f 94/60/12 68/61/11 66/62/12
f 41/63/2 25/64/2 32/65/2
f 89/66/19 57/67/19 100/68/19
f 42/69/2 29/70/2 28/71/2
f 2/2/1 8/16/1 13/3/1
f 31/72/19 1/73/19 12/74/19
f 13/75/20 32/76/13 11/35/13
f 3/77/1 1/78/1 11/79/1
f 43/80/21 12/74/21 2/81/21
f 32/82/2 43/13/2 44/83/2
f 1/73/22 43/80/22 2/81/22
f 89/66/21 58/84/21 70/85/21
f 30/86/2 42/69/2 43/13/2
f 7/87/23 36/8/23 20/5/23
f 14/88/1 8/16/1 15/18/1
f 9/4/1 10/6/1 12/89/1
f 22/22/1 19/57/1 16/56/1
f 40/25/18 21/90/24 4/48/18
f 21/91/24 27/11/25 16/56/25
f 27/11/25 22/22/16 16/56/25
f 32/65/2 44/92/2 41/63/2
f 23/43/2 38/93/2 39/94/2
f 18/95/1 3/77/1 11/79/1
f 29/27/2 24/96/2 40/25/2
f 21/90/1 14/97/1 4/48/1
f 52/98/26 56/99/27 47/100/28
f 45/101/29 54/102/30 51/103/31
f 45/101/29 52/98/26 47/100/28
f 54/102/30 56/104/27 55/105/32
f 47/100/28 46/106/33 45/101/29
f 45/101/29 48/107/34 49/108/35
f 51/103/31 50/109/36 52/98/26
f 53/110/37 51/103/31 54/102/30
f 55/105/32 53/111/37 54/102/30
f 55/112/32 50/113/36 53/114/37
f 49/108/35 48/115/34 56/104/27
f 48/116/34 47/100/28 56/99/27
f 91/117/1 99/118/1 89/119/1
f 99/120/22 57/67/22 58/84/22
f 85/121/25 78/122/16 79/52/16
f 61/123/18 80/124/24 97/125/18
f 88/126/20 69/127/13 90/128/13
f 69/129/2 58/130/2 57/131/2
f 78/122/2 63/132/2 62/133/2
f 58/130/2 67/134/2 70/135/2
f 79/52/1 82/136/1 85/121/1
f 72/137/7 88/138/20 87/139/7
f 96/140/10 76/141/14 62/142/10
f 87/143/1 93/50/1 86/144/1
f 80/145/24 74/146/25 85/121/25
f 78/122/2 76/147/2 64/53/2
f 65/148/3 91/149/4 81/150/3
f 67/151/4 93/50/5 91/117/4
f 63/152/9 84/153/8 82/154/9
f 86/155/6 61/123/18 97/125/18
f 90/128/13 76/156/14 83/157/14
f 87/158/7 75/159/8 72/160/7
f 65/148/2 68/161/2 67/162/2
f 92/163/1 81/150/1 91/149/1
f 82/154/9 62/142/10 63/152/9
f 68/61/11 98/164/15 60/165/15
f 83/166/1 79/52/1 95/54/1
f 94/167/23 65/148/23 81/150/23
f 71/168/2 59/169/2 58/130/2
f 87/170/1 86/155/1 97/125/1
f 60/171/2 76/172/2 69/173/2
f 83/174/1 98/175/1 90/176/1
f 59/169/2 72/177/2 73/178/2
f 92/163/1 91/149/1 89/179/1
f 84/180/1 85/121/1 82/136/1
f 2/2/1 10/59/1 8/16/1
f 75/181/2 74/146/2 77/182/2
f 61/123/2 73/183/2 72/184/2
f 72/184/2 77/185/2 61/123/2
f 90/186/1 99/118/1 88/187/1
f 99/118/1 93/50/1 88/187/1
f 69/173/2 57/188/2 60/171/2
f 70/189/2 68/161/2 60/190/2
f 80/124/1 87/191/1 97/125/1
f 98/175/1 100/192/1 90/176/1
f 31/193/2 34/194/2 33/7/2
f 105/195/38 109/196/39 112/197/40
f 107/198/41 111/199/42 110/200/43
f 112/201/40 101/202/44 105/195/38
f 101/202/44 106/203/45 105/195/38
f 108/204/46 103/205/47 109/206/39
f 107/198/41 103/207/47 108/204/46
f 110/208/43 104/209/48 107/198/41
f 110/200/43 103/210/47 104/211/48
f 106/203/45 102/212/49 111/213/42
f 111/199/42 101/214/44 112/215/40
f 108/204/46 106/203/45 107/198/41
f 112/215/40 110/200/43 111/199/42
f 120/216/26 124/217/27 115/218/28
f 113/219/29 122/220/30 119/221/31
f 113/219/29 120/216/26 115/218/28
f 122/220/30 124/222/27 123/223/32
f 115/218/28 114/224/33 113/219/29
f 113/219/29 116/225/34 117/226/35
f 119/221/31 118/227/36 120/216/26
f 121/228/37 119/221/31 122/220/30
f 123/223/32 121/229/37 122/220/30
f 123/230/32 118/231/36 121/232/37
f 117/226/35 116/233/34 124/222/27
f 116/234/34 115/218/28 124/217/27
f 23/43/16 6/235/17 22/22/16
f 30/236/20 14/237/7 29/238/7
f 129/239/38 133/240/39 136/241/40
f 131/242/41 135/243/42 134/244/43
f 136/245/40 125/246/44 129/239/38
f 125/246/44 130/247/45 129/239/38
f 132/248/46 127/249/47 133/250/39
f 131/242/41 127/251/47 132/248/46
f 134/252/43 128/253/48 131/242/41
f 134/244/43 127/254/47 128/255/48
f 130/247/45 126/256/49 135/257/42
f 135/243/42 125/258/44 136/259/40
f 132/248/46 130/247/45 131/242/41
f 136/259/40 134/244/43 135/243/42
f 11/1/1 1/260/1 2/2/1
f 9/4/1 7/34/1 20/5/1
f 33/7/2 34/194/2 36/8/2
f 26/10/2 38/93/2 27/11/2
f 36/8/3 34/194/4 10/6/4
f 43/13/2 42/69/2 34/14/2
f 8/16/5 42/261/5 28/17/6
f 14/19/7 17/262/8 26/20/8
f 22/22/1 6/235/1 18/23/1
f 19/28/9 38/32/9 26/29/8
f 19/28/9 5/41/10 39/31/10
f 33/33/11 35/263/12 7/34/12
f 11/35/13 32/76/13 25/36/14
f 41/38/15 33/33/11 9/4/11
f 25/40/14 39/31/10 5/41/10
f 23/43/2 39/94/2 25/44/2
f 73/49/6 86/144/6 93/50/5
f 79/52/16 78/122/16 64/53/17
f 17/55/1 21/91/1 16/56/1
f 34/58/4 42/261/5 8/16/5
f 15/47/6 28/264/6 40/25/18
f 94/60/12 92/163/11 68/61/11
f 41/63/2 37/265/2 25/64/2
f 89/66/19 70/85/19 57/67/19
f 42/69/2 30/86/2 29/70/2
f 31/72/19 44/266/19 1/73/19
f 13/75/20 30/267/20 32/76/13
f 43/80/21 31/72/21 12/74/21
f 32/82/2 30/268/2 43/13/2
f 1/73/22 44/266/22 43/80/22
f 89/66/21 99/120/21 58/84/21
f 7/87/23 35/269/23 36/8/23
f 14/88/1 13/270/1 8/16/1
f 12/89/1 1/271/1 3/39/1
f 3/39/1 9/4/1 12/89/1
f 22/22/1 5/24/1 19/57/1
f 40/25/18 24/96/24 21/90/24
f 21/91/24 24/12/24 27/11/25
f 27/11/25 23/43/16 22/22/16
f 23/43/2 27/11/2 38/93/2
f 18/95/1 6/272/1 3/77/1
f 29/27/2 26/273/2 24/96/2
f 21/90/1 17/274/1 14/97/1
f 52/98/26 55/112/32 56/99/27
f 45/101/29 49/108/35 54/102/30
f 45/101/29 51/103/31 52/98/26
f 54/102/30 49/108/35 56/104/27
f 45/101/29 46/275/33 48/107/34
f 53/110/37 50/276/36 51/103/31
f 55/112/32 52/98/26 50/113/36
f 48/116/34 46/277/33 47/100/28
f 91/117/1 93/50/1 99/118/1
f 99/120/22 100/68/22 57/67/22
f 85/121/25 74/146/25 78/122/16
f 61/123/18 77/185/24 80/124/24
f 88/126/20 71/278/20 69/127/13
f 69/129/2 71/279/2 58/130/2
f 78/122/2 74/146/2 63/132/2
f 58/130/2 59/169/2 67/134/2
f 79/52/1 96/280/1 82/136/1
f 72/137/7 71/281/20 88/138/20
f 96/140/10 83/282/14 76/141/14
f 87/143/1 88/283/1 93/50/1
f 80/145/24 77/182/24 74/146/25
f 78/122/2 62/133/2 76/147/2
f 65/148/3 67/162/4 91/149/4
f 67/151/4 59/51/5 93/50/5
f 63/152/9 75/284/8 84/153/8
f 86/155/6 73/285/6 61/123/18
f 90/128/13 69/127/13 76/156/14
f 87/158/7 84/286/8 75/159/8
f 65/148/2 66/287/2 68/161/2
f 92/163/1 94/60/1 81/150/1
f 82/154/9 96/140/10 62/142/10
f 68/61/11 92/163/11 98/164/15
f 83/166/1 96/280/1 79/52/1
f 94/167/23 66/288/23 65/148/23
f 60/171/2 64/289/2 76/172/2
f 83/174/1 95/290/1 98/175/1
f 59/169/2 71/168/2 72/177/2
f 89/179/1 100/291/1 98/164/1
f 98/164/1 92/163/1 89/179/1
f 84/180/1 80/145/1 85/121/1
f 2/2/1 12/292/1 10/59/1
f 75/181/2 63/132/2 74/146/2
f 72/184/2 75/293/2 77/185/2
f 90/186/1 100/294/1 99/118/1
f 60/190/2 57/295/2 70/189/2
f 70/189/2 67/162/2 68/161/2
f 80/124/1 84/296/1 87/191/1
f 33/7/2 41/297/2 31/193/2
f 41/297/2 44/298/2 31/193/2
f 105/195/38 108/204/46 109/196/39
f 107/198/41 106/203/45 111/199/42
f 101/202/44 102/299/49 106/203/45
f 107/198/41 104/209/48 103/207/47
f 110/200/43 109/300/39 103/210/47
f 111/199/42 102/301/49 101/214/44
f 108/204/46 105/195/38 106/203/45
f 112/215/40 109/300/39 110/200/43
f 120/216/26 123/230/32 124/217/27
f 113/219/29 117/226/35 122/220/30
f 113/219/29 119/221/31 120/216/26
f 122/220/30 117/226/35 124/222/27
f 113/219/29 114/302/33 116/225/34
f 121/228/37 118/303/36 119/221/31
f 123/230/32 120/216/26 118/231/36
f 116/234/34 114/304/33 115/218/28
f 23/43/16 37/45/17 6/235/17
f 30/236/20 13/305/20 14/237/7
f 129/239/38 132/248/46 133/240/39
f 131/242/41 130/247/45 135/243/42
f 125/246/44 126/306/49 130/247/45
f 131/242/41 128/253/48 127/251/47
f 134/244/43 133/307/39 127/254/47
f 135/243/42 126/308/49 125/258/44
f 132/248/46 129/239/38 130/247/45
f 136/259/40 133/307/39 134/244/43
