# Blender v2.82 (sub 7) OBJ File: 'cables_set.blend'
# www.blender.org
g 2.001_Circle.006
v -0.062500 1.000000 0.062500
v 0.062500 1.000000 0.062500
v 0.062500 -1.000000 0.062500
v -0.062500 -1.000000 0.062500
v -0.062500 -1.000000 -0.062500
v -0.062500 1.000000 -0.062500
v 0.062500 1.000000 -0.062500
v 0.062500 -1.000000 -0.062500
vt 0.130657 0.001979
vt 0.166968 0.138146
vt 0.130657 0.138146
vt 0.124208 0.001979
vt 0.087897 0.138146
vt 0.087897 0.001979
vt 0.003597 0.001584
vt 0.039908 0.137751
vt 0.003597 0.137751
vt 0.045927 0.001584
vt 0.082238 0.137751
vt 0.045927 0.137751
vt 0.166968 0.001979
vt 0.124208 0.138146
vt 0.039908 0.001584
vt 0.082238 0.001584
vn -0.7071 0.0000 0.7071
vn 0.7071 0.0000 0.7071
vn 0.7071 0.0000 -0.7071
vn -0.7071 0.0000 -0.7071
s 1
f 4/1/1 2/2/2 1/3/1
f 7/4/3 5/5/4 6/6/4
f 1/7/1 5/8/4 4/9/1
f 3/10/2 7/11/3 2/12/2
f 4/1/1 3/13/2 2/2/2
f 7/4/3 8/14/3 5/5/4
f 1/7/1 6/15/4 5/8/4
f 3/10/2 8/16/3 7/11/3
