# Blender v2.80 (sub 74) OBJ File: 'parametric.blend'
# www.blender.org
g short_Cube.001
v 2.000000 0.333333 -0.333333
v 2.000000 -0.333333 -0.333333
v 2.000000 0.333333 0.333333
v 2.000000 -0.333333 0.333333
v -2.000000 0.333333 -0.333333
v -2.000000 -0.333333 -0.333333
v -2.000000 0.333333 0.333333
v -2.000000 -0.333333 0.333333
v -2.000000 -0.427083 -0.182292
v -2.000000 -0.458333 0.000000
v -2.000000 -0.427083 0.182292
v 1.000000 -0.333333 -0.333333
v 0.000000 -0.333333 -0.333333
v -1.000000 -0.333333 -0.333333
v 2.000000 0.182292 -0.427083
v 2.000000 0.000000 -0.458333
v 2.000000 -0.182292 -0.427083
v -2.000000 -0.182292 0.427083
v -2.000000 0.000000 0.458333
v -2.000000 0.182292 0.427083
v 2.000000 0.182292 0.427083
v 2.000000 0.000000 0.458333
v 2.000000 -0.182292 0.427083
v -2.000000 0.182292 -0.427083
v -2.000000 0.000000 -0.458333
v -2.000000 -0.182292 -0.427083
v 1.000000 0.333333 0.333333
v 0.000000 0.333333 0.333333
v -1.000000 0.333333 0.333333
v 2.000000 0.427083 -0.182292
v 2.000000 0.458333 0.000000
v 2.000000 0.427083 0.182292
v -1.000000 -0.333333 0.333333
v -0.000000 -0.333333 0.333333
v 1.000000 -0.333333 0.333333
v -2.000000 0.427083 0.182292
v -2.000000 0.458333 0.000000
v -2.000000 0.427083 -0.182292
v -1.000000 0.333333 -0.333333
v 0.000000 0.333333 -0.333333
v 1.000000 0.333333 -0.333333
v 2.000000 -0.427083 0.182292
v 2.000000 -0.458333 0.000000
v 2.000000 -0.427083 -0.182292
v 1.000000 0.427083 -0.182292
v 0.000000 0.427083 -0.182292
v -1.000000 0.427083 -0.182292
v 1.000000 0.458333 0.000000
v 0.000000 0.458333 0.000000
v -1.000000 0.458333 0.000000
v 1.000000 0.427083 0.182292
v 0.000000 0.427083 0.182292
v -1.000000 0.427083 0.182292
v 1.000000 -0.182292 0.427083
v 1.000000 0.000000 0.458333
v 1.000000 0.182292 0.427083
v -0.000000 -0.182292 0.427083
v -0.000000 0.000000 0.458333
v -0.000000 0.182292 0.427083
v -1.000000 -0.182292 0.427083
v -1.000000 0.000000 0.458333
v -1.000000 0.182292 0.427083
v -1.000000 -0.427083 -0.182292
v 0.000000 -0.427083 -0.182292
v 1.000000 -0.427083 -0.182292
v -1.000000 -0.458333 0.000000
v 0.000000 -0.458333 0.000000
v 1.000000 -0.458333 0.000000
v -1.000000 -0.427083 0.182292
v 0.000000 -0.427083 0.182292
v 1.000000 -0.427083 0.182292
v -1.000000 -0.182292 -0.427083
v -1.000000 0.000000 -0.458333
v -1.000000 0.182292 -0.427083
v 0.000000 -0.182292 -0.427083
v 0.000000 0.000000 -0.458333
v 0.000000 0.182292 -0.427083
v 1.000000 -0.182292 -0.427083
v 1.000000 0.000000 -0.458333
v 1.000000 0.182292 -0.427083
v -2.000000 -0.215278 -0.215278
v -2.000000 -0.229167 0.000000
v -2.000000 -0.215278 0.215278
v -2.000000 -0.000000 -0.229167
v -2.000000 0.000000 0.000000
v -2.000000 0.000000 0.229167
v -2.000000 0.215278 -0.215278
v -2.000000 0.229167 0.000000
v -2.000000 0.215278 0.215278
v 2.000000 -0.215278 -0.215278
v 2.000000 0.000000 -0.229167
v 2.000000 0.215278 -0.215278
v 2.000000 -0.229167 -0.000000
v 2.000000 0.000000 0.000000
v 2.000000 0.229167 0.000000
v 2.000000 -0.215278 0.215278
v 2.000000 0.000000 0.229167
v 2.000000 0.215278 0.215278
vt 0.820613 0.414076
vt 0.836718 0.415779
vt 0.833811 0.432736
vt 0.816854 0.429829
vt 0.852470 0.419537
vt 0.850767 0.435642
vt 0.830904 0.449692
vt 0.815151 0.445934
vt 0.847009 0.451395
vt 0.813375 0.403843
vt 0.825740 0.398822
vt 0.804522 0.413830
vt 0.839624 0.398822
vt 0.852716 0.403447
vt 0.862703 0.412300
vt 0.867724 0.424665
vt 0.867724 0.438549
vt 0.863100 0.451641
vt 0.854247 0.461628
vt 0.841882 0.466649
vt 0.827997 0.466649
vt 0.814905 0.462024
vt 0.799898 0.440807
vt 0.804919 0.453172
vt 0.799898 0.426922
vt 0.852470 0.536063
vt 0.836718 0.539821
vt 0.833811 0.522865
vt 0.850767 0.519958
vt 0.820613 0.541524
vt 0.816854 0.525771
vt 0.830904 0.505908
vt 0.847009 0.504205
vt 0.815151 0.509666
vt 0.862703 0.543301
vt 0.852716 0.552153
vt 0.867724 0.530935
vt 0.839624 0.556778
vt 0.825740 0.556778
vt 0.813375 0.551757
vt 0.804522 0.541770
vt 0.799898 0.528678
vt 0.799898 0.514794
vt 0.804918 0.502429
vt 0.814905 0.493576
vt 0.827997 0.488951
vt 0.841882 0.488951
vt 0.863099 0.503959
vt 0.854247 0.493972
vt 0.867724 0.517051
vt 0.581081 0.763633
vt 0.581081 0.838705
vt 0.567196 0.838705
vt 0.567196 0.763633
vt 0.581081 0.913777
vt 0.567196 0.913777
vt 0.553312 0.838705
vt 0.553312 0.763633
vt 0.553312 0.913777
vt 0.594427 0.688561
vt 0.594427 0.763633
vt 0.581081 0.688561
vt 0.594427 0.838705
vt 0.594427 0.913777
vt 0.594427 0.988849
vt 0.581081 0.988849
vt 0.567196 0.988849
vt 0.553312 0.988849
vt 0.539966 0.988849
vt 0.539966 0.913777
vt 0.539966 0.838705
vt 0.539966 0.763633
vt 0.553312 0.688561
vt 0.539966 0.688561
vt 0.567196 0.688561
vt 0.716693 0.763633
vt 0.730578 0.763633
vt 0.730578 0.838705
vt 0.716693 0.838705
vt 0.744462 0.763633
vt 0.744462 0.838705
vt 0.730578 0.913777
vt 0.716693 0.913777
vt 0.744462 0.913777
vt 0.703348 0.688561
vt 0.716693 0.688562
vt 0.703348 0.763633
vt 0.730578 0.688562
vt 0.744462 0.688561
vt 0.757808 0.688562
vt 0.757808 0.763633
vt 0.757808 0.838705
vt 0.757808 0.913777
vt 0.757808 0.988849
vt 0.744462 0.988849
vt 0.730578 0.988849
vt 0.716693 0.988849
vt 0.703348 0.913777
vt 0.703348 0.988849
vt 0.703348 0.838705
vt 0.662233 0.913777
vt 0.662233 0.838705
vt 0.676117 0.838705
vt 0.676117 0.913777
vt 0.662233 0.763633
vt 0.676117 0.763633
vt 0.690002 0.838705
vt 0.690002 0.913777
vt 0.690002 0.763633
vt 0.648887 0.988849
vt 0.648887 0.913777
vt 0.662233 0.988849
vt 0.648887 0.838705
vt 0.648887 0.763633
vt 0.648887 0.688561
vt 0.662233 0.688561
vt 0.676117 0.688561
vt 0.690002 0.688561
vt 0.690002 0.988849
vt 0.676117 0.988849
vt 0.635541 0.913777
vt 0.621657 0.913777
vt 0.621657 0.838705
vt 0.635541 0.838705
vt 0.607772 0.913777
vt 0.607772 0.838705
vt 0.621657 0.763633
vt 0.635541 0.763633
vt 0.607772 0.763633
vt 0.635541 0.988849
vt 0.621657 0.988849
vt 0.607772 0.988849
vt 0.607772 0.688561
vt 0.621657 0.688561
vt 0.635541 0.688561
vn -1.0000 0.0000 0.0000
vn 1.0000 0.0000 0.0000
vn 0.0000 0.9350 -0.3547
vn 0.0000 1.0000 0.0000
vn 0.0000 0.9350 0.3547
vn 0.0000 0.7071 -0.7071
vn -0.0000 0.7071 0.7071
vn 0.0000 -0.3547 0.9350
vn 0.0000 -0.0000 1.0000
vn 0.0000 0.3547 0.9350
vn 0.0000 -0.7071 0.7071
vn -0.0000 -0.9350 -0.3547
vn -0.0000 -1.0000 0.0000
vn -0.0000 -0.9350 0.3547
vn -0.0000 -0.7071 -0.7071
vn -0.0000 -0.3547 -0.9350
vn 0.0000 -0.0000 -1.0000
vn 0.0000 0.3547 -0.9350
s off
f 81/1/1 82/2/1 85/3/1 84/4/1
f 82/2/1 83/5/1 86/6/1 85/3/1
f 84/4/1 85/3/1 88/7/1 87/8/1
f 85/3/1 86/6/1 89/9/1 88/7/1
f 6/10/1 9/11/1 81/1/1 26/12/1
f 9/11/1 10/13/1 82/2/1 81/1/1
f 10/13/1 11/14/1 83/5/1 82/2/1
f 11/14/1 8/15/1 18/16/1 83/5/1
f 83/5/1 18/16/1 19/17/1 86/6/1
f 86/6/1 19/17/1 20/18/1 89/9/1
f 89/9/1 20/18/1 7/19/1 36/20/1
f 88/7/1 89/9/1 36/20/1 37/21/1
f 87/8/1 88/7/1 37/21/1 38/22/1
f 24/23/1 87/8/1 38/22/1 5/24/1
f 25/25/1 84/4/1 87/8/1 24/23/1
f 26/12/1 81/1/1 84/4/1 25/25/1
f 90/26/2 91/27/2 94/28/2 93/29/2
f 91/27/2 92/30/2 95/31/2 94/28/2
f 93/29/2 94/28/2 97/32/2 96/33/2
f 94/28/2 95/31/2 98/34/2 97/32/2
f 2/35/2 17/36/2 90/26/2 44/37/2
f 17/36/2 16/38/2 91/27/2 90/26/2
f 16/38/2 15/39/2 92/30/2 91/27/2
f 15/39/2 1/40/2 30/41/2 92/30/2
f 92/30/2 30/41/2 31/42/2 95/31/2
f 95/31/2 31/42/2 32/43/2 98/34/2
f 98/34/2 32/43/2 3/44/2 21/45/2
f 97/32/2 98/34/2 21/45/2 22/46/2
f 96/33/2 97/32/2 22/46/2 23/47/2
f 42/48/2 96/33/2 23/47/2 4/49/2
f 43/50/2 93/29/2 96/33/2 42/48/2
f 44/37/2 90/26/2 93/29/2 43/50/2
s 1
f 45/51/3 46/52/3 49/53/4 48/54/4
f 46/52/3 47/55/3 50/56/4 49/53/4
f 48/54/4 49/53/4 52/57/5 51/58/5
f 49/53/4 50/56/4 53/59/5 52/57/5
f 1/60/6 41/61/6 45/51/3 30/62/3
f 41/61/6 40/63/6 46/52/3 45/51/3
f 40/63/6 39/64/6 47/55/3 46/52/3
f 39/64/6 5/65/6 38/66/3 47/55/3
f 47/55/3 38/66/3 37/67/4 50/56/4
f 50/56/4 37/67/4 36/68/5 53/59/5
f 53/59/5 36/68/5 7/69/7 29/70/7
f 52/57/5 53/59/5 29/70/7 28/71/7
f 51/58/5 52/57/5 28/71/7 27/72/7
f 32/73/5 51/58/5 27/72/7 3/74/7
f 31/75/4 48/54/4 51/58/5 32/73/5
f 30/62/3 45/51/3 48/54/4 31/75/4
f 54/76/8 55/77/9 58/78/9 57/79/8
f 55/77/9 56/80/10 59/81/10 58/78/9
f 57/79/8 58/78/9 61/82/9 60/83/8
f 58/78/9 59/81/10 62/84/10 61/82/9
f 4/85/11 23/86/8 54/76/8 35/87/11
f 23/86/8 22/88/9 55/77/9 54/76/8
f 22/88/9 21/89/10 56/80/10 55/77/9
f 21/89/10 3/90/7 27/91/7 56/80/10
f 56/80/10 27/91/7 28/92/7 59/81/10
f 59/81/10 28/92/7 29/93/7 62/84/10
f 62/84/10 29/93/7 7/94/7 20/95/10
f 61/82/9 62/84/10 20/95/10 19/96/9
f 60/83/8 61/82/9 19/96/9 18/97/8
f 33/98/11 60/83/8 18/97/8 8/99/11
f 34/100/11 57/79/8 60/83/8 33/98/11
f 35/87/11 54/76/8 57/79/8 34/100/11
f 63/101/12 64/102/12 67/103/13 66/104/13
f 64/102/12 65/105/12 68/106/13 67/103/13
f 66/104/13 67/103/13 70/107/14 69/108/14
f 67/103/13 68/106/13 71/109/14 70/107/14
f 6/110/15 14/111/15 63/101/12 9/112/12
f 14/111/15 13/113/15 64/102/12 63/101/12
f 13/113/15 12/114/15 65/105/12 64/102/12
f 12/114/15 2/115/15 44/116/12 65/105/12
f 65/105/12 44/116/12 43/117/13 68/106/13
f 68/106/13 43/117/13 42/118/14 71/109/14
f 71/109/14 42/118/14 4/85/11 35/87/11
f 70/107/14 71/109/14 35/87/11 34/100/11
f 69/108/14 70/107/14 34/100/11 33/98/11
f 11/119/14 69/108/14 33/98/11 8/99/11
f 10/120/13 66/104/13 69/108/14 11/119/14
f 9/112/12 63/101/12 66/104/13 10/120/13
f 72/121/16 73/122/17 76/123/17 75/124/16
f 73/122/17 74/125/18 77/126/18 76/123/17
f 75/124/16 76/123/17 79/127/17 78/128/16
f 76/123/17 77/126/18 80/129/18 79/127/17
f 6/110/15 26/130/16 72/121/16 14/111/15
f 26/130/16 25/131/17 73/122/17 72/121/16
f 25/131/17 24/132/18 74/125/18 73/122/17
f 24/132/18 5/65/6 39/64/6 74/125/18
f 74/125/18 39/64/6 40/63/6 77/126/18
f 77/126/18 40/63/6 41/61/6 80/129/18
f 80/129/18 41/61/6 1/60/6 15/133/18
f 79/127/17 80/129/18 15/133/18 16/134/17
f 78/128/16 79/127/17 16/134/17 17/135/16
f 12/114/15 78/128/16 17/135/16 2/115/15
f 13/113/15 75/124/16 78/128/16 12/114/15
f 14/111/15 72/121/16 75/124/16 13/113/15
