# Blender v2.82 (sub 7) OBJ File: 'cables_set.blend'
# www.blender.org
g turm1.001_Circle.002
v -0.437500 0.000000 0.062500
v -0.378906 0.218750 0.062500
v -0.218750 0.378906 0.062500
v 0.000000 0.437500 0.062500
v 0.000000 0.562500 0.062500
v -0.281250 0.500000 0.062500
v -0.500000 0.281250 0.062500
v -0.562500 0.000000 0.062500
v -0.437500 0.000000 -0.062500
v -0.378906 0.218750 -0.062500
v -0.218750 0.378906 -0.062500
v 0.000000 0.437500 -0.062500
v -0.281250 0.500000 -0.062500
v 0.000000 0.562500 -0.062500
v -0.500000 0.281250 -0.062500
v -0.562500 0.000000 -0.062500
vt 0.043332 0.259160
vt 0.007797 0.238235
vt 0.026776 0.232630
vt 0.041426 0.157353
vt 0.076960 0.178278
vt 0.057982 0.183883
vt 0.102016 0.232096
vt 0.121297 0.266791
vt 0.102016 0.266791
vt 0.102016 0.153244
vt 0.121297 0.187938
vt 0.102016 0.187938
vt 0.133925 0.206472
vt 0.153074 0.238581
vt 0.133925 0.238581
vt 0.121297 0.232096
vt 0.153074 0.266382
vt 0.133925 0.266382
vt 0.133925 0.178670
vt 0.153074 0.206472
vt 0.007797 0.196384
vt 0.026776 0.201989
vt 0.043332 0.175458
vt 0.030410 0.163501
vt 0.076960 0.220129
vt 0.057982 0.214524
vt 0.041426 0.241055
vt 0.054348 0.253012
vt 0.030410 0.271118
vt 0.054348 0.145395
vt 0.121297 0.153244
vt 0.153074 0.178670
vn 0.1684 -0.6286 0.7592
vn -0.3660 0.6667 0.6493
vn 0.3188 -0.5523 0.7703
vn 0.6286 -0.1684 -0.7592
vn -0.6667 0.3660 -0.6493
vn 0.5523 -0.3188 -0.7703
vn -0.6667 0.3660 0.6493
vn -0.7398 0.1644 -0.6524
vn -0.7398 0.1644 0.6524
vn -0.1644 0.7398 0.6524
vn -0.3660 0.6667 -0.6493
vn 0.5523 -0.3188 0.7703
vn 0.3188 -0.5523 -0.7703
vn 0.1684 -0.6286 -0.7592
vn 0.6286 -0.1684 0.7592
vn -0.1644 0.7398 -0.6524
s 1
f 4/1/1 6/2/2 3/3/3
f 9/4/4 15/5/5 10/6/6
f 7/7/7 16/8/8 8/9/9
f 5/10/10 13/11/11 6/12/2
f 2/13/12 11/14/13 3/15/3
f 6/12/2 15/16/5 7/7/7
f 3/15/3 12/17/14 4/18/1
f 1/19/15 10/20/6 2/13/12
f 3/3/3 7/21/7 2/22/12
f 1/23/15 7/21/7 8/24/9
f 10/6/6 13/25/11 11/26/13
f 12/27/14 13/25/11 14/28/16
f 4/1/1 5/29/10 6/2/2
f 9/4/4 16/30/8 15/5/5
f 7/7/7 15/16/5 16/8/8
f 5/10/10 14/31/16 13/11/11
f 2/13/12 10/20/6 11/14/13
f 6/12/2 13/11/11 15/16/5
f 3/15/3 11/14/13 12/17/14
f 1/19/15 9/32/4 10/20/6
f 3/3/3 6/2/2 7/21/7
f 1/23/15 2/22/12 7/21/7
f 10/6/6 15/5/5 13/25/11
f 12/27/14 11/26/13 13/25/11
