# Blender v2.82 (sub 7) OBJ File: 'cables_set.blend'
# www.blender.org
g turn2_Circle.007
v 0.000000 1.041667 0.041667
v -0.516944 0.917488 0.045574
v -0.917488 0.516944 0.045574
v -1.041667 -0.000000 0.041667
v 0.000000 0.958333 0.041667
v -0.472954 0.840311 0.045574
v -0.840311 0.472954 0.045574
v -0.958333 -0.000000 0.041667
v -0.958333 0.000000 -0.041667
v -0.840311 0.472954 -0.043429
v 0.000000 0.958333 -0.041667
v -0.472954 0.840311 -0.043429
v -1.041667 -0.000000 -0.041667
v -0.917488 0.516944 -0.043429
v 0.000000 1.041667 -0.041667
v -0.516944 0.917488 -0.043429
v -0.263203 1.004304 0.043914
v -0.746674 0.746674 0.046160
v -1.004304 0.263203 0.043914
v -0.942708 0.000000 0.000000
v -1.057292 -0.000000 0.000000
v -0.825840 0.464706 0.001072
v -0.464706 0.825840 0.001072
v -0.525192 0.931959 0.001072
v -0.931959 0.525192 0.001072
v 0.000000 0.942708 0.000000
v 0.000000 1.057292 0.000000
v 0.000000 1.000000 -0.057292
v -0.240803 0.921615 0.043914
v -0.683252 0.683252 0.046160
v -0.921615 0.240803 0.043914
v -1.000000 -0.000000 -0.057292
v -0.921616 0.240803 -0.042680
v -0.683252 0.683252 -0.043694
v -0.240803 0.921615 -0.042680
v -1.004304 0.263203 -0.042680
v -0.746674 0.746674 -0.043694
v -0.263203 1.004304 -0.042680
v -1.000000 -0.000000 0.057292
v 0.000000 1.000000 0.057292
v -0.494949 0.878899 0.062263
v -0.878899 0.494949 0.062263
v -0.878900 0.494949 -0.060118
v -0.494949 0.878899 -0.060118
v -0.252003 0.962960 0.060150
v -0.962960 0.252003 -0.058917
v -0.758565 0.758565 0.001233
v -0.236603 0.906111 0.000617
v -0.671360 0.671360 0.001233
v -1.019808 0.267403 0.000617
v -0.267403 1.019808 0.000617
v -0.906111 0.236603 0.000617
v -0.714963 0.714963 0.063008
v -0.962960 0.252003 0.060150
v -0.714963 0.714963 -0.060541
v -0.252003 0.962960 -0.058917
vt 0.221322 0.128300
vt 0.230506 0.160397
vt 0.210900 0.130446
vt 0.231744 0.126154
vt 0.239545 0.156498
vt 0.271367 0.176033
vt 0.264199 0.181422
vt 0.257032 0.186812
vt 0.291440 0.131153
vt 0.281921 0.096916
vt 0.302348 0.108077
vt 0.280623 0.135275
vt 0.272535 0.103329
vt 0.239530 0.083543
vt 0.246964 0.077953
vt 0.254398 0.072364
vt 0.322347 0.205848
vt 0.334508 0.167388
vt 0.334374 0.203952
vt 0.309829 0.167387
vt 0.322771 0.167388
vt 0.322347 0.128927
vt 0.334374 0.130823
vt 0.184520 0.122874
vt 0.173306 0.151226
vt 0.172913 0.122874
vt 0.195891 0.151226
vt 0.184599 0.151226
vt 0.184706 0.176350
vt 0.173839 0.176350
vt 0.172913 0.056486
vt 0.184492 0.089680
vt 0.172774 0.089680
vt 0.196127 0.056486
vt 0.184520 0.056486
vt 0.196127 0.122874
vt 0.322869 0.099286
vt 0.333993 0.099760
vt 0.312452 0.072364
vt 0.322965 0.072364
vt 0.333478 0.072364
vt 0.333478 0.262412
vt 0.322869 0.235489
vt 0.333993 0.235015
vt 0.312452 0.262412
vt 0.322965 0.262412
vt 0.302348 0.226698
vt 0.184706 0.003011
vt 0.173306 0.028134
vt 0.173839 0.003011
vt 0.195891 0.028134
vt 0.184599 0.028134
vt 0.210900 0.059937
vt 0.214891 0.095191
vt 0.203981 0.095191
vt 0.221322 0.062083
vt 0.225801 0.095192
vt 0.264199 0.008961
vt 0.230506 0.029986
vt 0.257032 0.003571
vt 0.271367 0.014350
vt 0.239545 0.033885
vt 0.231744 0.064229
vt 0.298104 0.167387
vt 0.291440 0.203622
vt 0.286787 0.167387
vt 0.246964 0.256822
vt 0.281921 0.237859
vt 0.254398 0.262412
vt 0.239530 0.251233
vt 0.272535 0.231446
vt 0.280623 0.199500
vt 0.248584 0.152599
vt 0.263159 0.107847
vt 0.195573 0.176350
vt 0.196210 0.089680
vt 0.310948 0.096916
vt 0.310948 0.237859
vt 0.195573 0.003011
vt 0.248584 0.037784
vt 0.263159 0.226928
vn -0.0104 0.0334 0.9994
vn -0.1631 0.7028 0.6924
vn -0.3360 0.6443 0.6870
vn 0.3253 -0.6041 0.7274
vn 0.0049 0.0231 0.9997
vn 0.1109 -0.6831 0.7219
vn 0.0060 0.0330 0.9994
vn -0.0970 0.7225 0.6845
vn -0.0323 0.0125 -0.9994
vn -0.7023 0.1658 -0.6923
vn -0.6437 0.3374 -0.6869
vn 0.6052 -0.3238 -0.7273
vn -0.0221 -0.0008 -0.9998
vn 0.6827 -0.1072 -0.7228
vn -0.0329 -0.0013 -0.9995
vn -0.7217 0.1001 -0.6850
vn -0.4660 0.8848 0.0001
vn -0.5129 0.5129 0.6883
vn -0.5131 0.5131 -0.6882
vn -0.7071 0.7071 0.0001
vn -0.8848 0.4660 0.0001
vn -0.6443 0.3360 0.6870
vn 0.4700 -0.8827 0.0001
vn 0.1740 -0.6748 0.7172
vn 0.1709 -0.6757 -0.7171
vn 0.2431 -0.9700 0.0001
vn 0.1532 -0.9882 -0.0006
vn 0.6041 -0.3253 0.7275
vn 0.7071 -0.7071 0.0001
vn 0.4860 -0.4860 0.7264
vn 0.8827 -0.4700 0.0001
vn 0.3238 -0.6052 -0.7273
vn -0.9727 0.2319 0.0001
vn -0.7028 0.1631 0.6924
vn -0.9903 0.1388 -0.0005
vn -0.7225 0.0970 0.6845
vn -0.2319 0.9727 0.0001
vn -0.1001 0.7217 -0.6850
vn -0.1388 0.9903 -0.0005
vn -0.3374 0.6437 -0.6869
vn 0.9882 -0.1532 -0.0006
vn 0.6748 -0.1740 0.7172
vn 0.6831 -0.1109 0.7219
vn 0.6757 -0.1709 -0.7171
vn 0.9700 -0.2431 0.0001
vn -0.0229 0.0229 0.9995
vn -0.0334 0.0104 0.9994
vn -0.0330 -0.0060 0.9994
vn -0.0231 -0.0049 0.9997
vn -0.0229 0.0229 -0.9995
vn -0.0125 0.0323 -0.9994
vn 0.4861 -0.4861 -0.7263
vn 0.0013 0.0329 -0.9995
vn -0.1658 0.7023 -0.6923
vn 0.1072 -0.6827 -0.7228
vn 0.0008 0.0221 -0.9998
s 1
f 41/1/1 17/2/2 2/3/3
f 6/4/4 45/5/5 41/1/1
f 45/5/5 5/6/6 40/7/7
f 17/2/2 40/7/7 1/8/8
f 43/9/9 36/10/10 14/11/11
f 10/12/12 46/13/13 43/9/9
f 46/13/13 9/14/14 32/15/15
f 36/10/10 32/15/15 13/16/16
f 24/17/17 18/18/18 2/19/3
f 24/17/17 37/20/19 47/21/20
f 37/20/19 25/22/21 47/21/20
f 18/18/18 25/22/21 3/23/22
f 23/24/23 29/25/24 6/26/4
f 23/24/23 35/27/25 48/28/26
f 35/27/25 26/29/27 48/28/26
f 29/25/24 26/29/27 5/30/6
f 7/31/28 49/32/29 30/33/30
f 10/34/12 49/32/29 22/35/31
f 49/32/29 12/36/32 23/24/23
f 49/32/29 6/26/4 30/33/30
f 3/23/22 50/37/33 19/38/34
f 14/11/11 50/37/33 25/22/21
f 50/37/33 13/39/16 21/40/35
f 50/37/33 4/41/36 19/38/34
f 1/42/8 51/43/37 17/44/2
f 15/45/38 51/43/37 27/46/39
f 51/43/37 16/47/40 24/17/17
f 51/43/37 2/19/3 17/44/2
f 20/48/41 31/49/42 8/50/43
f 20/48/41 33/51/44 52/52/45
f 33/51/44 22/35/31 52/52/45
f 31/49/42 22/35/31 7/31/28
f 3/53/22 53/54/46 18/55/18
f 42/56/47 30/57/30 53/54/46
f 30/57/30 41/1/1 53/54/46
f 53/54/46 2/3/3 18/55/18
f 39/58/48 19/59/34 4/60/36
f 8/61/43 54/62/49 39/58/48
f 54/62/49 7/63/28 42/56/47
f 19/59/34 42/56/47 3/53/22
f 16/47/40 55/64/50 37/20/19
f 44/65/51 34/66/52 55/64/50
f 34/66/52 43/9/9 55/64/50
f 55/64/50 14/11/11 37/20/19
f 28/67/53 38/68/54 15/69/38
f 11/70/55 56/71/56 28/67/53
f 56/71/56 12/72/32 44/65/51
f 38/68/54 44/65/51 16/47/40
f 41/1/1 45/5/5 17/2/2
f 6/4/4 29/73/24 45/5/5
f 45/5/5 29/73/24 5/6/6
f 17/2/2 45/5/5 40/7/7
f 43/9/9 46/13/13 36/10/10
f 10/12/12 33/74/44 46/13/13
f 46/13/13 33/74/44 9/14/14
f 36/10/10 46/13/13 32/15/15
f 24/17/17 47/21/20 18/18/18
f 24/17/17 16/47/40 37/20/19
f 37/20/19 14/11/11 25/22/21
f 18/18/18 47/21/20 25/22/21
f 23/24/23 48/28/26 29/25/24
f 23/24/23 12/36/32 35/27/25
f 35/27/25 11/75/55 26/29/27
f 29/25/24 48/28/26 26/29/27
f 7/31/28 22/35/31 49/32/29
f 10/34/12 34/76/52 49/32/29
f 49/32/29 34/76/52 12/36/32
f 49/32/29 23/24/23 6/26/4
f 3/23/22 25/22/21 50/37/33
f 14/11/11 36/77/10 50/37/33
f 50/37/33 36/77/10 13/39/16
f 50/37/33 21/40/35 4/41/36
f 1/42/8 27/46/39 51/43/37
f 15/45/38 38/78/54 51/43/37
f 51/43/37 38/78/54 16/47/40
f 51/43/37 24/17/17 2/19/3
f 20/48/41 52/52/45 31/49/42
f 20/48/41 9/79/14 33/51/44
f 33/51/44 10/34/12 22/35/31
f 31/49/42 52/52/45 22/35/31
f 3/53/22 42/56/47 53/54/46
f 42/56/47 7/63/28 30/57/30
f 30/57/30 6/4/4 41/1/1
f 53/54/46 41/1/1 2/3/3
f 39/58/48 54/62/49 19/59/34
f 8/61/43 31/80/42 54/62/49
f 54/62/49 31/80/42 7/63/28
f 19/59/34 54/62/49 42/56/47
f 16/47/40 44/65/51 55/64/50
f 44/65/51 12/72/32 34/66/52
f 34/66/52 10/12/12 43/9/9
f 55/64/50 43/9/9 14/11/11
f 28/67/53 56/71/56 38/68/54
f 11/70/55 35/81/25 56/71/56
f 56/71/56 35/81/25 12/72/32
f 38/68/54 56/71/56 44/65/51
