# Blender v2.82 (sub 7) OBJ File: 'cables_set.blend'
# www.blender.org
g turn2.001_Circle.001
v 0.000000 1.062500 0.062500
v -0.540827 1.004342 0.068890
v -1.004343 0.540827 0.068890
v -1.062500 -0.000000 0.062500
v 0.000000 0.937500 0.062500
v -0.473223 0.878843 0.068890
v -0.878843 0.473223 0.068890
v -0.937500 0.000000 0.062500
v -0.937500 0.000000 -0.062500
v -0.878843 0.473223 -0.066316
v 0.000000 0.937500 -0.062500
v -0.473223 0.878843 -0.066316
v -1.062500 -0.000000 -0.062500
v -1.004343 0.540827 -0.066316
v 0.000000 1.062500 -0.062500
v -0.540827 1.004342 -0.066316
vt 0.223820 0.130169
vt 0.257032 0.186812
vt 0.201674 0.135161
vt 0.288842 0.131111
vt 0.254398 0.072364
vt 0.311810 0.125933
vt 0.311810 0.208842
vt 0.334553 0.125933
vt 0.334553 0.208842
vt 0.196237 0.127179
vt 0.173839 0.176350
vt 0.172728 0.127179
vt 0.196237 0.052181
vt 0.172728 0.052181
vt 0.333478 0.072364
vt 0.333478 0.262412
vt 0.173839 0.003011
vt 0.201674 0.055222
vt 0.257032 0.003571
vt 0.223820 0.060214
vt 0.254398 0.262412
vt 0.288842 0.203664
vt 0.271367 0.176033
vt 0.239530 0.083543
vt 0.195573 0.176350
vt 0.312452 0.072364
vt 0.312452 0.262412
vt 0.195573 0.003011
vt 0.271367 0.014350
vt 0.239530 0.251233
vn 0.2749 -0.5491 0.7893
vn -0.0696 0.7308 0.6791
vn -0.3288 0.6939 0.6406
vn 0.5507 -0.2730 -0.7888
vn -0.7294 0.0731 -0.6801
vn -0.6938 0.3300 -0.6401
vn -0.3300 0.6938 -0.6401
vn -0.6939 0.3288 0.6406
vn 0.2730 -0.5507 -0.7888
vn 0.0938 -0.6773 0.7297
vn 0.5491 -0.2749 0.7893
vn -0.7308 0.0696 0.6791
vn 0.6773 -0.0938 0.7297
vn -0.0731 0.7294 -0.6801
vn 0.6763 -0.0897 -0.7312
vn 0.0897 -0.6763 -0.7312
s 1
f 6/1/1 1/2/2 2/3/3
f 10/4/4 13/5/5 14/6/6
f 16/7/7 3/8/8 2/9/3
f 12/10/9 5/11/10 6/12/1
f 10/13/4 6/12/1 7/14/11
f 14/6/6 4/15/12 3/8/8
f 1/16/2 16/7/7 2/9/3
f 8/17/13 10/13/4 7/14/11
f 3/18/8 6/1/1 2/3/3
f 4/19/12 7/20/11 3/18/8
f 16/7/7 10/4/4 14/6/6
f 15/21/14 12/22/9 16/7/7
f 6/1/1 5/23/10 1/2/2
f 10/4/4 9/24/15 13/5/5
f 16/7/7 14/6/6 3/8/8
f 12/10/9 11/25/16 5/11/10
f 10/13/4 12/10/9 6/12/1
f 14/6/6 13/26/5 4/15/12
f 1/16/2 15/27/14 16/7/7
f 8/17/13 9/28/15 10/13/4
f 3/18/8 7/20/11 6/1/1
f 4/19/12 8/29/13 7/20/11
f 16/7/7 12/22/9 10/4/4
f 15/21/14 11/30/16 12/22/9
