# Blender v2.82 (sub 7) OBJ File: 'cables_set.blend'
# www.blender.org
g 2_Circle.010
v -0.041667 1.000000 0.041667
v 0.041667 1.000000 0.041667
v 0.041667 -1.000000 0.041667
v -0.041667 -1.000000 0.041667
v -0.041667 -1.000000 -0.041667
v -0.041667 1.000000 -0.041667
v 0.041667 1.000000 -0.041667
v 0.041667 -1.000000 -0.041667
v -0.041667 0.000000 0.041667
v 0.041667 0.000000 0.041667
v -0.000000 -1.000000 0.057292
v -0.000000 1.000000 0.057292
v -0.041667 0.000000 -0.041667
v 0.041667 0.000000 -0.041667
v -0.000000 -1.000000 -0.057292
v -0.000000 1.000000 -0.057292
v -0.057292 -1.000000 0.000000
v 0.057292 -1.000000 0.000000
v -0.057292 1.000000 0.000000
v 0.057292 1.000000 0.000000
v 0.000000 0.000000 0.057292
v 0.000000 0.000000 -0.057292
v -0.057292 0.000000 -0.000000
v 0.057292 0.000000 -0.000000
vt 0.130657 0.070063
vt 0.148812 0.138146
vt 0.130657 0.138146
vt 0.130657 0.001979
vt 0.148812 0.070063
vt 0.148812 0.001979
vt 0.166968 0.070063
vt 0.166968 0.138146
vt 0.106052 0.001979
vt 0.087897 0.070063
vt 0.087897 0.001979
vt 0.124208 0.001979
vt 0.106052 0.070063
vt 0.124208 0.070063
vt 0.106052 0.138146
vt 0.087897 0.138146
vt 0.003597 0.069668
vt 0.021753 0.137751
vt 0.003597 0.137751
vt 0.003597 0.001584
vt 0.021753 0.069668
vt 0.039908 0.001584
vt 0.039908 0.069668
vt 0.039908 0.137751
vt 0.045927 0.069668
vt 0.064083 0.137751
vt 0.045927 0.137751
vt 0.045927 0.001584
vt 0.064083 0.069668
vt 0.082238 0.001584
vt 0.082238 0.069668
vt 0.082238 0.137751
vt 0.166968 0.001979
vt 0.124208 0.138146
vt 0.021753 0.001584
vt 0.064083 0.001584
vn -0.7071 0.0000 0.7071
vn -0.0000 -0.0000 1.0000
vn 0.7071 -0.0000 0.7071
vn -0.0000 -0.0000 -1.0000
vn -0.7071 0.0000 -0.7071
vn 0.7071 -0.0000 -0.7071
vn -1.0000 0.0000 0.0000
vn 1.0000 -0.0000 -0.0000
s 1
f 9/1/1 12/2/2 1/3/1
f 4/4/1 21/5/2 9/1/1
f 11/6/2 10/7/3 21/5/2
f 21/5/2 2/8/3 12/2/2
f 16/9/4 13/10/5 6/11/5
f 7/12/6 22/13/4 16/9/4
f 14/14/6 15/15/4 22/13/4
f 22/13/4 5/16/5 13/10/5
f 9/17/1 17/18/7 4/19/1
f 1/20/1 23/21/7 9/17/1
f 23/21/7 6/22/5 13/23/5
f 17/18/7 13/23/5 5/24/5
f 10/25/3 20/26/8 2/27/3
f 3/28/3 24/29/8 10/25/3
f 24/29/8 8/30/6 14/31/6
f 20/26/8 14/31/6 7/32/6
f 9/1/1 21/5/2 12/2/2
f 4/4/1 11/6/2 21/5/2
f 11/6/2 3/33/3 10/7/3
f 21/5/2 10/7/3 2/8/3
f 16/9/4 22/13/4 13/10/5
f 7/12/6 14/14/6 22/13/4
f 14/14/6 8/34/6 15/15/4
f 22/13/4 15/15/4 5/16/5
f 9/17/1 23/21/7 17/18/7
f 1/20/1 19/35/7 23/21/7
f 23/21/7 19/35/7 6/22/5
f 17/18/7 23/21/7 13/23/5
f 10/25/3 24/29/8 20/26/8
f 3/28/3 18/36/8 24/29/8
f 24/29/8 18/36/8 8/30/6
f 20/26/8 24/29/8 14/31/6
