# Blender v2.80 (sub 74) OBJ File: 'parametric.blend'
# www.blender.org
g medium_Cube.002
v 0.333347 -4.000000 -0.333346
v -0.333345 -4.000000 -0.333346
v 0.333347 -4.000000 0.333346
v -0.333345 -4.000000 0.333346
v 0.333346 4.000000 -0.333346
v -0.333347 4.000000 -0.333346
v 0.333346 4.000000 0.333346
v -0.333347 4.000000 0.333346
v -0.427094 4.000000 -0.182300
v -0.458340 4.000000 0.000000
v -0.427094 4.000000 0.182301
v -0.333346 -2.000000 -0.333346
v -0.333346 -0.000000 -0.333346
v -0.333346 2.000000 -0.333346
v 0.182301 -4.000000 -0.427093
v 0.000001 -4.000000 -0.458340
v -0.182300 -4.000000 -0.427093
v -0.182301 4.000000 0.427093
v -0.000001 4.000000 0.458340
v 0.182300 4.000000 0.427093
v 0.182301 -4.000000 0.427093
v 0.000001 -4.000000 0.458340
v -0.182300 -4.000000 0.427093
v 0.182300 4.000000 -0.427093
v -0.000001 4.000000 -0.458340
v -0.182301 4.000000 -0.427093
v 0.333347 -2.000000 0.333346
v 0.333346 0.000000 0.333346
v 0.333346 2.000000 0.333346
v 0.427094 -4.000000 -0.182301
v 0.458341 -4.000000 -0.000000
v 0.427094 -4.000000 0.182300
v -0.333346 2.000000 0.333346
v -0.333346 -0.000000 0.333346
v -0.333346 -2.000000 0.333346
v 0.427092 4.000000 0.182300
v 0.458339 4.000000 -0.000000
v 0.427092 4.000000 -0.182301
v 0.333346 2.000000 -0.333346
v 0.333346 0.000000 -0.333346
v 0.333347 -2.000000 -0.333346
v -0.427092 -4.000000 0.182301
v -0.458339 -4.000000 0.000000
v -0.427092 -4.000000 -0.182300
v 0.427094 -2.000000 -0.182301
v 0.427093 0.000000 -0.182301
v 0.427093 2.000000 -0.182301
v 0.458340 -2.000000 -0.000000
v 0.458340 0.000000 -0.000000
v 0.458339 2.000000 -0.000000
v 0.427093 -2.000000 0.182300
v 0.427093 0.000000 0.182300
v 0.427093 2.000000 0.182300
v -0.182300 -2.000000 0.427093
v 0.000000 -2.000000 0.458340
v 0.182301 -2.000000 0.427093
v -0.182300 -0.000000 0.427093
v 0.000000 -0.000000 0.458340
v 0.182301 0.000000 0.427093
v -0.182301 2.000000 0.427093
v -0.000000 2.000000 0.458340
v 0.182300 2.000000 0.427093
v -0.427093 2.000000 -0.182300
v -0.427093 -0.000000 -0.182300
v -0.427092 -2.000000 -0.182300
v -0.458340 2.000000 0.000000
v -0.458340 -0.000000 0.000000
v -0.458339 -2.000000 0.000000
v -0.427093 2.000000 0.182301
v -0.427093 -0.000000 0.182301
v -0.427092 -2.000000 0.182301
v -0.182301 2.000000 -0.427093
v -0.000000 2.000000 -0.458340
v 0.182300 2.000000 -0.427093
v -0.182300 0.000000 -0.427093
v 0.000000 0.000000 -0.458340
v 0.182301 -0.000000 -0.427093
v -0.182300 -2.000000 -0.427093
v 0.000000 -2.000000 -0.458340
v 0.182301 -2.000000 -0.427093
vt 0.802641 0.156324
vt 0.802641 0.141293
vt 0.807646 0.127121
vt 0.817229 0.116310
vt 0.830614 0.110875
vt 0.845644 0.110875
vt 0.859816 0.115880
vt 0.870627 0.125463
vt 0.876063 0.138848
vt 0.876063 0.153878
vt 0.871057 0.168050
vt 0.861475 0.178861
vt 0.848090 0.184296
vt 0.833059 0.184296
vt 0.818887 0.179291
vt 0.808076 0.169709
vt 0.807646 0.071761
vt 0.802641 0.057589
vt 0.802641 0.042558
vt 0.808076 0.029173
vt 0.818887 0.019591
vt 0.833059 0.014586
vt 0.848090 0.014586
vt 0.861475 0.020021
vt 0.871057 0.030832
vt 0.876063 0.045004
vt 0.876063 0.060035
vt 0.870627 0.073420
vt 0.859816 0.083002
vt 0.845644 0.088007
vt 0.830614 0.088007
vt 0.817229 0.082572
vt 0.732181 0.499279
vt 0.732181 0.336752
vt 0.747211 0.336752
vt 0.747211 0.499279
vt 0.732181 0.174226
vt 0.747211 0.174226
vt 0.762241 0.336752
vt 0.762241 0.499279
vt 0.762242 0.174226
vt 0.717734 0.661805
vt 0.717734 0.499279
vt 0.732180 0.661805
vt 0.717734 0.336752
vt 0.717734 0.174226
vt 0.717734 0.011699
vt 0.732181 0.011699
vt 0.747211 0.011699
vt 0.762241 0.011699
vt 0.776688 0.011699
vt 0.776688 0.174226
vt 0.776688 0.336752
vt 0.776688 0.499279
vt 0.762241 0.661805
vt 0.776688 0.661805
vt 0.747211 0.661805
vt 0.585381 0.499279
vt 0.570350 0.499279
vt 0.570350 0.336752
vt 0.585381 0.336752
vt 0.555320 0.499279
vt 0.555320 0.336752
vt 0.570350 0.174226
vt 0.585381 0.174226
vt 0.555320 0.174226
vt 0.599827 0.661805
vt 0.585380 0.661805
vt 0.599827 0.499279
vt 0.570350 0.661805
vt 0.555320 0.661805
vt 0.540873 0.661805
vt 0.540873 0.499279
vt 0.540873 0.336752
vt 0.540873 0.174226
vt 0.540873 0.011699
vt 0.555320 0.011699
vt 0.570350 0.011699
vt 0.585381 0.011699
vt 0.599827 0.174226
vt 0.599827 0.011699
vt 0.599827 0.336752
vt 0.644334 0.174226
vt 0.644334 0.336752
vt 0.629304 0.336752
vt 0.629304 0.174226
vt 0.644334 0.499279
vt 0.629304 0.499279
vt 0.614273 0.336752
vt 0.614273 0.174226
vt 0.614273 0.499279
vt 0.658781 0.011699
vt 0.658781 0.174226
vt 0.644334 0.011699
vt 0.658781 0.336752
vt 0.658781 0.499279
vt 0.658780 0.661805
vt 0.644334 0.661805
vt 0.629304 0.661805
vt 0.614273 0.661805
vt 0.614273 0.011699
vt 0.629304 0.011699
vt 0.673227 0.174226
vt 0.688257 0.174226
vt 0.688257 0.336752
vt 0.673227 0.336752
vt 0.703288 0.174226
vt 0.703288 0.336752
vt 0.688257 0.499279
vt 0.673227 0.499279
vt 0.703288 0.499279
vt 0.673227 0.011699
vt 0.688258 0.011699
vt 0.703288 0.011699
vt 0.703288 0.661805
vt 0.688257 0.661805
vt 0.673227 0.661805
vn 0.0000 1.0000 -0.0000
vn 0.0000 -1.0000 0.0000
vn 0.9350 0.0000 -0.3547
vn 1.0000 0.0000 0.0000
vn 0.9350 0.0000 0.3547
vn 0.7071 0.0000 -0.7071
vn 0.7071 0.0000 0.7071
vn -0.3547 -0.0000 0.9350
vn 0.0000 -0.0000 1.0000
vn 0.3547 0.0000 0.9350
vn -0.7071 -0.0000 0.7071
vn -0.9350 -0.0000 -0.3547
vn -1.0000 -0.0000 0.0000
vn -0.9350 -0.0000 0.3547
vn -0.7071 -0.0000 -0.7071
vn -0.3547 -0.0000 -0.9350
vn -0.0000 0.0000 -1.0000
vn 0.3547 0.0000 -0.9350
s off
f 18/1/1 19/2/1 20/3/1 7/4/1 36/5/1 37/6/1 38/7/1 5/8/1 24/9/1 25/10/1 26/11/1 6/12/1 9/13/1 10/14/1 11/15/1 8/16/1
f 30/17/2 31/18/2 32/19/2 3/20/2 21/21/2 22/22/2 23/23/2 4/24/2 42/25/2 43/26/2 44/27/2 2/28/2 17/29/2 16/30/2 15/31/2 1/32/2
s 1
f 45/33/3 46/34/3 49/35/4 48/36/4
f 46/34/3 47/37/3 50/38/4 49/35/4
f 48/36/4 49/35/4 52/39/5 51/40/5
f 49/35/4 50/38/4 53/41/5 52/39/5
f 1/42/6 41/43/6 45/33/3 30/44/3
f 41/43/6 40/45/6 46/34/3 45/33/3
f 40/45/6 39/46/6 47/37/3 46/34/3
f 39/46/6 5/47/6 38/48/3 47/37/3
f 47/37/3 38/48/3 37/49/4 50/38/4
f 50/38/4 37/49/4 36/50/5 53/41/5
f 53/41/5 36/50/5 7/51/7 29/52/7
f 52/39/5 53/41/5 29/52/7 28/53/7
f 51/40/5 52/39/5 28/53/7 27/54/7
f 32/55/5 51/40/5 27/54/7 3/56/7
f 31/57/4 48/36/4 51/40/5 32/55/5
f 30/44/3 45/33/3 48/36/4 31/57/4
f 54/58/8 55/59/9 58/60/9 57/61/8
f 55/59/9 56/62/10 59/63/10 58/60/9
f 57/61/8 58/60/9 61/64/9 60/65/8
f 58/60/9 59/63/10 62/66/10 61/64/9
f 4/67/11 23/68/8 54/58/8 35/69/11
f 23/68/8 22/70/9 55/59/9 54/58/8
f 22/70/9 21/71/10 56/62/10 55/59/9
f 21/71/10 3/72/7 27/73/7 56/62/10
f 56/62/10 27/73/7 28/74/7 59/63/10
f 59/63/10 28/74/7 29/75/7 62/66/10
f 62/66/10 29/75/7 7/76/7 20/77/10
f 61/64/9 62/66/10 20/77/10 19/78/9
f 60/65/8 61/64/9 19/78/9 18/79/8
f 33/80/11 60/65/8 18/79/8 8/81/11
f 34/82/11 57/61/8 60/65/8 33/80/11
f 35/69/11 54/58/8 57/61/8 34/82/11
f 63/83/12 64/84/12 67/85/13 66/86/13
f 64/84/12 65/87/12 68/88/13 67/85/13
f 66/86/13 67/85/13 70/89/14 69/90/14
f 67/85/13 68/88/13 71/91/14 70/89/14
f 6/92/15 14/93/15 63/83/12 9/94/12
f 14/93/15 13/95/15 64/84/12 63/83/12
f 13/95/15 12/96/15 65/87/12 64/84/12
f 12/96/15 2/97/15 44/98/12 65/87/12
f 65/87/12 44/98/12 43/99/13 68/88/13
f 68/88/13 43/99/13 42/100/14 71/91/14
f 71/91/14 42/100/14 4/67/11 35/69/11
f 70/89/14 71/91/14 35/69/11 34/82/11
f 69/90/14 70/89/14 34/82/11 33/80/11
f 11/101/14 69/90/14 33/80/11 8/81/11
f 10/102/13 66/86/13 69/90/14 11/101/14
f 9/94/12 63/83/12 66/86/13 10/102/13
f 72/103/16 73/104/17 76/105/17 75/106/16
f 73/104/17 74/107/18 77/108/18 76/105/17
f 75/106/16 76/105/17 79/109/17 78/110/16
f 76/105/17 77/108/18 80/111/18 79/109/17
f 6/92/15 26/112/16 72/103/16 14/93/15
f 26/112/16 25/113/17 73/104/17 72/103/16
f 25/113/17 24/114/18 74/107/18 73/104/17
f 24/114/18 5/47/6 39/46/6 74/107/18
f 74/107/18 39/46/6 40/45/6 77/108/18
f 77/108/18 40/45/6 41/43/6 80/111/18
f 80/111/18 41/43/6 1/42/6 15/115/18
f 79/109/17 80/111/18 15/115/18 16/116/17
f 78/110/16 79/109/17 16/116/17 17/117/16
f 12/96/15 78/110/16 17/117/16 2/97/15
f 13/95/15 75/106/16 78/110/16 12/96/15
f 14/93/15 72/103/16 75/106/16 13/95/15
