# Blender v2.91.2 OBJ File: 'chains.blend'
# www.blender.org
g chain1_lod2_Torus.005
v 0.211689 0.093549 -0.987632
v -0.211689 0.093549 -0.987632
v 0.211689 0.816726 -0.409091
v -0.211689 0.816726 -0.409091
v 0.211689 0.816726 0.409091
v -0.211689 0.816726 0.409091
v 0.211689 0.093550 0.987632
v -0.211689 0.093550 0.987632
v 0.211689 -2.745612 0.987632
v -0.211689 -2.745612 0.987632
v 0.211689 -3.468789 0.409091
v -0.211689 -3.468789 0.409091
v 0.211689 -3.468789 -0.409091
v -0.211689 -3.468789 -0.409091
v 0.211689 -2.745612 -0.987632
v -0.211689 -2.745612 -0.987632
v -0.987632 -6.745485 0.211689
v -0.987632 -6.745485 -0.211689
v -0.409091 -7.468663 0.211689
v -0.409091 -7.468663 -0.211689
v 0.409091 -7.468663 0.211689
v 0.409091 -7.468663 -0.211689
v 0.987632 -6.745485 0.211689
v 0.987632 -6.745485 -0.211689
v 0.987632 -3.906325 0.211689
v 0.987632 -3.906325 -0.211689
v 0.409091 -3.183147 0.211689
v 0.409091 -3.183147 -0.211689
v -0.409091 -3.183147 0.211689
v -0.409091 -3.183147 -0.211689
v -0.987632 -3.906325 0.211689
v -0.987632 -3.906325 -0.211689
v 0.211689 -7.906587 -0.987632
v -0.211689 -7.906587 -0.987632
v 0.211689 -7.183409 -0.409091
v -0.211689 -7.183409 -0.409091
v 0.211689 -7.183409 0.409091
v -0.211689 -7.183409 0.409091
v 0.211689 -7.906586 0.987632
v -0.211689 -7.906586 0.987632
v 0.211689 -10.745748 0.987632
v -0.211689 -10.745748 0.987632
v 0.211689 -11.468924 0.409091
v -0.211689 -11.468924 0.409091
v 0.211689 -11.468924 -0.409091
v -0.211689 -11.468924 -0.409091
v 0.211689 -10.745748 -0.987632
v -0.211689 -10.745748 -0.987632
v -0.987632 -14.745621 0.211689
v -0.987632 -14.745621 -0.211689
v -0.409091 -15.468798 0.211689
v -0.409091 -15.468798 -0.211689
v 0.409091 -15.468798 0.211689
v 0.409091 -15.468798 -0.211689
v 0.987632 -14.745621 0.211689
v 0.987632 -14.745621 -0.211689
v 0.987632 -11.906460 0.211689
v 0.987632 -11.906460 -0.211689
v 0.409091 -11.183283 0.211689
v 0.409091 -11.183283 -0.211689
v -0.409091 -11.183283 0.211689
v -0.409091 -11.183283 -0.211689
v -0.987632 -11.906460 0.211689
v -0.987632 -11.906460 -0.211689
vt 0.719363 0.013863
vt 0.431742 0.246358
vt 0.423473 0.013046
vt 0.641335 0.888914
vt 0.321747 0.985285
vt 0.392185 0.888381
vt 0.405475 0.801181
vt 0.423473 0.013046
vt 0.669062 0.246887
vt 0.431742 0.246358
vt 0.424391 0.330506
vt 0.663407 0.330483
vt 0.420305 0.416308
vt 0.655288 0.500072
vt 0.414761 0.499649
vt 0.651427 0.717623
vt 0.414761 0.499649
vt 0.655288 0.500072
vt 0.651427 0.717623
vt 0.410732 0.717197
vt 0.652274 0.989576
vt 0.392185 0.888381
vt 0.641335 0.888914
vt 0.663407 0.330483
vt 0.420305 0.416308
vt 0.424391 0.330506
vt 0.669062 0.246887
vt 0.659260 0.416260
vt 0.645852 0.801227
vt 0.410732 0.717197
vt 0.645852 0.801227
vt 0.719363 0.013863
vt 0.431742 0.246358
vt 0.423473 0.013046
vt 0.641335 0.888914
vt 0.321747 0.985285
vt 0.392185 0.888381
vt 0.405475 0.801181
vt 0.423473 0.013046
vt 0.669062 0.246887
vt 0.431742 0.246358
vt 0.424391 0.330506
vt 0.663407 0.330483
vt 0.420305 0.416308
vt 0.655288 0.500072
vt 0.414761 0.499649
vt 0.651427 0.717623
vt 0.414761 0.499649
vt 0.655288 0.500072
vt 0.651427 0.717623
vt 0.410732 0.717197
vt 0.641335 0.888914
vt 0.321747 0.985285
vt 0.392185 0.888381
vt 0.663407 0.330483
vt 0.420305 0.416308
vt 0.424391 0.330506
vt 0.669062 0.246887
vt 0.659260 0.416260
vt 0.645852 0.801227
vt 0.410732 0.717197
vt 0.645852 0.801227
vt 0.652274 0.989576
vt 0.719363 0.013863
vt 0.659260 0.416260
vt 0.321747 0.985285
vt 0.405475 0.801181
vt 0.652274 0.989576
vt 0.719363 0.013863
vt 0.659260 0.416260
vt 0.652274 0.989576
vt 0.405475 0.801181
vn 0.4757 0.1506 0.8666
vn 0.4807 -0.1525 -0.8635
vn 0.4933 0.1570 -0.8556
vn -0.8265 0.5006 0.2575
vn 0.8666 0.1506 0.4757
vn 0.8147 0.5160 0.2644
vn 0.8218 0.5069 -0.2602
vn -0.8666 -0.1506 0.4757
vn 0.8556 -0.1570 0.4933
vn 0.8225 -0.5060 0.2597
vn -0.8218 -0.5069 0.2602
vn 0.8265 -0.5007 -0.2573
vn -0.8615 -0.1536 -0.4839
vn 0.8635 -0.1524 -0.4807
vn -0.4808 0.1524 0.8635
vn -0.4807 -0.1525 -0.8635
vn -0.4841 -0.1533 0.8615
vn -0.8635 0.1527 -0.4806
vn 0.8615 0.1533 -0.4840
vn 0.2571 0.5007 -0.8265
vn 0.2644 0.5160 0.8147
vn 0.2602 -0.5069 0.8218
vn -0.2573 -0.5007 -0.8265
vn 0.2599 -0.5059 -0.8225
vn 0.4840 -0.1536 0.8615
vn -0.2644 -0.5160 0.8147
vn -0.2573 0.5007 0.8265
vn -0.4839 0.1536 -0.8615
vn -0.8225 0.5060 -0.2598
vn 0.4807 0.1524 0.8635
vn 0.4808 -0.1523 -0.8635
vn 0.4839 0.1536 -0.8615
vn -0.8265 0.5007 0.2573
vn 0.8218 0.5070 -0.2600
vn 0.8556 -0.1571 0.4932
vn 0.8225 -0.5061 0.2595
vn 0.8265 -0.5007 -0.2571
vn -0.8615 -0.1537 -0.4839
vn -0.4807 0.1526 0.8635
vn -0.4807 -0.1526 -0.8635
vn -0.4840 -0.1535 0.8615
vn -0.8635 0.1524 -0.4807
vn 0.8615 0.1534 -0.4840
vn 0.2598 0.5060 0.8225
vn 0.2599 0.5070 -0.8218
vn 0.2603 -0.5069 0.8218
vn 0.2598 -0.5060 -0.8225
vn 0.4840 -0.1534 0.8615
vn -0.2643 -0.5161 0.8147
vn -0.4839 0.1538 -0.8615
vn -0.8225 0.5061 -0.2596
vn -0.8556 0.1570 0.4933
vn -0.8147 -0.5160 -0.2644
vn -0.2644 0.5160 -0.8147
s 1
f 25/1/1 24/2/2 26/3/3
f 6/4/4 7/5/5 5/6/6
f 3/7/7 6/4/4 5/6/6
f 7/8/5 10/9/8 9/10/9
f 10/9/8 11/11/10 9/10/9
f 12/12/11 13/13/12 11/11/10
f 13/13/12 16/14/13 15/15/14
f 31/16/15 18/17/16 17/18/17
f 15/15/14 2/19/18 1/20/19
f 25/21/1 28/22/20 27/23/21
f 21/24/22 20/25/23 22/26/24
f 22/26/24 23/27/25 21/24/22
f 17/18/17 20/25/23 19/28/26
f 28/22/20 29/29/27 27/23/21
f 29/29/27 32/30/28 31/16/15
f 1/20/19 4/31/29 3/7/7
f 57/32/30 56/33/31 58/34/32
f 38/35/33 39/36/5 37/37/6
f 35/38/34 38/35/33 37/37/6
f 39/39/5 42/40/8 41/41/35
f 42/40/8 43/42/36 41/41/35
f 44/43/11 45/44/37 43/42/36
f 45/44/37 48/45/38 47/46/14
f 63/47/39 50/48/40 49/49/41
f 47/46/14 34/50/42 33/51/43
f 59/52/44 58/53/32 60/54/45
f 53/55/46 52/56/23 54/57/47
f 54/57/47 55/58/48 53/55/46
f 49/49/41 52/56/23 51/59/49
f 60/54/45 61/60/27 59/52/44
f 61/60/27 64/61/50 63/47/39
f 33/51/43 36/62/51 35/38/34
f 25/1/1 23/27/25 24/2/2
f 6/4/4 8/63/52 7/5/5
f 3/7/7 4/31/29 6/4/4
f 7/8/5 8/64/52 10/9/8
f 10/9/8 12/12/11 11/11/10
f 12/12/11 14/65/53 13/13/12
f 13/13/12 14/65/53 16/14/13
f 31/16/15 32/30/28 18/17/16
f 15/15/14 16/14/13 2/19/18
f 25/21/1 26/66/3 28/22/20
f 21/24/22 19/28/26 20/25/23
f 22/26/24 24/2/2 23/27/25
f 17/18/17 18/17/16 20/25/23
f 28/22/20 30/67/54 29/29/27
f 29/29/27 30/67/54 32/30/28
f 1/20/19 2/19/18 4/31/29
f 57/32/30 55/58/48 56/33/31
f 38/35/33 40/68/52 39/36/5
f 35/38/34 36/62/51 38/35/33
f 39/39/5 40/69/52 42/40/8
f 42/40/8 44/43/11 43/42/36
f 44/43/11 46/70/53 45/44/37
f 45/44/37 46/70/53 48/45/38
f 63/47/39 64/61/50 50/48/40
f 47/46/14 48/45/38 34/50/42
f 59/52/44 57/71/30 58/53/32
f 53/55/46 51/59/49 52/56/23
f 54/57/47 56/33/31 55/58/48
f 49/49/41 50/48/40 52/56/23
f 60/54/45 62/72/54 61/60/27
f 61/60/27 62/72/54 64/61/50
f 33/51/43 34/50/42 36/62/51
