# Blender v2.80 (sub 74) OBJ File: 'parametric.blend'
# www.blender.org
g long_Cube
v 8.000000 0.333333 -0.333333
v 8.000000 -0.333333 -0.333333
v 8.000000 0.333333 0.333333
v 8.000000 -0.333333 0.333333
v -8.000000 0.333333 -0.333333
v -8.000000 -0.333333 -0.333333
v -8.000000 0.333333 0.333333
v -8.000000 -0.333333 0.333333
v -8.000000 -0.427083 -0.182292
v -8.000000 -0.458333 0.000000
v -8.000000 -0.427083 0.182292
v 4.000000 -0.333333 -0.333333
v 0.000000 -0.333333 -0.333333
v -4.000000 -0.333333 -0.333333
v 8.000000 0.182292 -0.427083
v 8.000000 0.000000 -0.458333
v 8.000000 -0.182292 -0.427083
v -8.000000 -0.182292 0.427083
v -8.000000 0.000000 0.458333
v -8.000000 0.182292 0.427083
v 8.000000 0.182292 0.427083
v 8.000000 0.000000 0.458333
v 8.000000 -0.182292 0.427083
v -8.000000 0.182292 -0.427083
v -8.000000 0.000000 -0.458333
v -8.000000 -0.182292 -0.427083
v 4.000000 0.333334 0.333333
v 0.000000 0.333334 0.333333
v -4.000000 0.333333 0.333333
v 8.000000 0.427083 -0.182292
v 8.000000 0.458333 0.000000
v 8.000000 0.427083 0.182292
v -4.000000 -0.333333 0.333333
v -0.000000 -0.333333 0.333333
v 4.000000 -0.333333 0.333333
v -8.000000 0.427083 0.182292
v -8.000000 0.458333 0.000000
v -8.000000 0.427083 -0.182292
v -4.000000 0.333333 -0.333333
v 0.000000 0.333333 -0.333333
v 4.000000 0.333333 -0.333333
v 8.000000 -0.427083 0.182292
v 8.000000 -0.458333 0.000000
v 8.000000 -0.427083 -0.182292
v 4.000000 0.427083 -0.182292
v 0.000000 0.427083 -0.182292
v -4.000000 0.427083 -0.182292
v 4.000000 0.458333 0.000000
v 0.000000 0.458333 0.000000
v -4.000000 0.458333 0.000000
v 4.000000 0.427084 0.182292
v 0.000000 0.427084 0.182292
v -4.000000 0.427083 0.182292
v 4.000000 -0.182291 0.427083
v 4.000000 0.000000 0.458333
v 4.000000 0.182292 0.427083
v -0.000000 -0.182291 0.427083
v -0.000000 0.000000 0.458333
v -0.000000 0.182292 0.427083
v -4.000000 -0.182291 0.427083
v -4.000000 0.000000 0.458333
v -4.000000 0.182292 0.427083
v -4.000000 -0.427083 -0.182292
v 0.000000 -0.427083 -0.182292
v 4.000000 -0.427083 -0.182292
v -4.000000 -0.458333 0.000000
v 0.000000 -0.458333 0.000000
v 4.000000 -0.458333 0.000000
v -4.000000 -0.427083 0.182292
v 0.000000 -0.427083 0.182292
v 4.000000 -0.427083 0.182292
v -4.000000 -0.182291 -0.427083
v -4.000000 0.000000 -0.458333
v -4.000000 0.182292 -0.427083
v 0.000000 -0.182291 -0.427083
v 0.000000 0.000000 -0.458333
v 0.000000 0.182292 -0.427083
v 4.000000 -0.182291 -0.427083
v 4.000000 0.000000 -0.458333
v 4.000000 0.182292 -0.427083
v -8.000000 -0.215277 -0.215278
v -8.000000 -0.229166 0.000000
v -8.000000 -0.215277 0.215278
v -8.000000 0.000000 -0.229167
v -8.000000 0.000000 0.000000
v -8.000000 0.000000 0.229167
v -8.000000 0.215279 -0.215278
v -8.000000 0.229167 0.000000
v -8.000000 0.215278 0.215278
v 8.000000 -0.215278 -0.215278
v 8.000000 0.000000 -0.229167
v 8.000000 0.215278 -0.215278
v 8.000000 -0.229167 -0.000000
v 8.000000 0.000000 0.000000
v 8.000000 0.229167 0.000000
v 8.000000 -0.215277 0.215278
v 8.000000 0.000000 0.229167
v 8.000000 0.215278 0.215278
vt 0.797063 0.740920
vt 0.798956 0.723021
vt 0.817801 0.726252
vt 0.814570 0.745097
vt 0.803133 0.705514
vt 0.821032 0.707407
vt 0.836646 0.729483
vt 0.832469 0.746990
vt 0.838539 0.711584
vt 0.785691 0.748964
vt 0.780111 0.735222
vt 0.796790 0.758803
vt 0.780110 0.719791
vt 0.785250 0.705241
vt 0.795089 0.694142
vt 0.808831 0.688561
vt 0.824262 0.688561
vt 0.838812 0.693701
vt 0.849911 0.703540
vt 0.855492 0.717282
vt 0.855492 0.732713
vt 0.850352 0.747263
vt 0.826771 0.763943
vt 0.840513 0.758362
vt 0.811340 0.763943
vt 0.838539 0.809267
vt 0.836646 0.827166
vt 0.817801 0.823936
vt 0.821032 0.805090
vt 0.832469 0.844674
vt 0.814570 0.842781
vt 0.798956 0.820705
vt 0.803133 0.803198
vt 0.797063 0.838604
vt 0.849911 0.801223
vt 0.855492 0.814966
vt 0.838812 0.791385
vt 0.855492 0.830397
vt 0.850352 0.844947
vt 0.840513 0.856046
vt 0.826771 0.861626
vt 0.811340 0.861626
vt 0.796790 0.856486
vt 0.785691 0.846648
vt 0.780110 0.832905
vt 0.780110 0.817474
vt 0.785250 0.802924
vt 0.808831 0.786245
vt 0.795089 0.791825
vt 0.824262 0.786245
vt 0.207562 0.344887
vt 0.207562 0.011151
vt 0.222993 0.011151
vt 0.222993 0.344887
vt 0.321253 0.011152
vt 0.321253 0.344887
vt 0.305822 0.344887
vt 0.305822 0.011152
vt 0.238424 0.011151
vt 0.238424 0.344887
vt 0.290391 0.344887
vt 0.290391 0.011152
vt 0.192730 0.678622
vt 0.192730 0.344887
vt 0.207562 0.678622
vt 0.192730 0.011151
vt 0.336085 0.011152
vt 0.336085 0.344887
vt 0.336085 0.678622
vt 0.321253 0.678622
vt 0.305822 0.678622
vt 0.290391 0.678622
vt 0.275559 0.678622
vt 0.275559 0.344887
vt 0.275559 0.011152
vt 0.253256 0.011151
vt 0.253256 0.344887
vt 0.238424 0.678622
vt 0.253256 0.678622
vt 0.222993 0.678622
vt 0.056846 0.344887
vt 0.041414 0.344887
vt 0.041414 0.011152
vt 0.056845 0.011152
vt 0.025983 0.344887
vt 0.025983 0.011152
vt 0.471969 0.011151
vt 0.487400 0.011151
vt 0.487400 0.344887
vt 0.471969 0.344887
vt 0.502831 0.011151
vt 0.502832 0.344887
vt 0.071678 0.678622
vt 0.056846 0.678622
vt 0.071678 0.344887
vt 0.041415 0.678622
vt 0.025983 0.678622
vt 0.011151 0.678622
vt 0.011151 0.344887
vt 0.011151 0.011152
vt 0.517664 0.011151
vt 0.517664 0.344887
vt 0.517663 0.678622
vt 0.502832 0.678622
vt 0.487401 0.678622
vt 0.471970 0.678622
vt 0.457137 0.344887
vt 0.457138 0.678622
vt 0.457137 0.011151
vt 0.071677 0.011152
vt 0.411443 0.344887
vt 0.411442 0.011151
vt 0.426874 0.011151
vt 0.426874 0.344887
vt 0.117371 0.011152
vt 0.117372 0.344887
vt 0.101941 0.344887
vt 0.101940 0.011152
vt 0.442305 0.011151
vt 0.442305 0.344887
vt 0.086510 0.344887
vt 0.086509 0.011152
vt 0.396612 0.678622
vt 0.396611 0.344887
vt 0.411444 0.678622
vt 0.396610 0.011152
vt 0.132203 0.011152
vt 0.132204 0.344887
vt 0.132205 0.678622
vt 0.117373 0.678622
vt 0.101941 0.678622
vt 0.086510 0.678622
vt 0.442306 0.678622
vt 0.426875 0.678622
vt 0.381779 0.344887
vt 0.366348 0.344887
vt 0.366347 0.011152
vt 0.381778 0.011152
vt 0.350917 0.344887
vt 0.350916 0.011152
vt 0.147035 0.011151
vt 0.162466 0.011151
vt 0.162467 0.344887
vt 0.147036 0.344887
vt 0.177897 0.011151
vt 0.177898 0.344887
vt 0.381780 0.678622
vt 0.366349 0.678622
vt 0.350918 0.678622
vt 0.177898 0.678622
vt 0.162468 0.678622
vt 0.147037 0.678622
vn -1.0000 0.0000 0.0000
vn 1.0000 0.0000 0.0000
vn 0.0000 0.9350 -0.3547
vn -0.0000 1.0000 -0.0000
vn -0.0000 0.9350 0.3547
vn 0.0000 0.7071 -0.7071
vn -0.0000 0.7071 0.7071
vn 0.0000 -0.3547 0.9350
vn -0.0000 0.0000 1.0000
vn 0.0000 0.3547 0.9350
vn 0.0000 -0.7071 0.7071
vn 0.0000 -0.9350 -0.3547
vn 0.0000 -1.0000 0.0000
vn 0.0000 -0.9350 0.3547
vn -0.0000 -0.7071 -0.7071
vn -0.0000 -0.3547 -0.9350
vn 0.0000 0.0000 -1.0000
vn -0.0000 0.3547 -0.9350
s off
f 81/1/1 82/2/1 85/3/1 84/4/1
f 82/2/1 83/5/1 86/6/1 85/3/1
f 84/4/1 85/3/1 88/7/1 87/8/1
f 85/3/1 86/6/1 89/9/1 88/7/1
f 6/10/1 9/11/1 81/1/1 26/12/1
f 9/11/1 10/13/1 82/2/1 81/1/1
f 10/13/1 11/14/1 83/5/1 82/2/1
f 11/14/1 8/15/1 18/16/1 83/5/1
f 83/5/1 18/16/1 19/17/1 86/6/1
f 86/6/1 19/17/1 20/18/1 89/9/1
f 89/9/1 20/18/1 7/19/1 36/20/1
f 88/7/1 89/9/1 36/20/1 37/21/1
f 87/8/1 88/7/1 37/21/1 38/22/1
f 24/23/1 87/8/1 38/22/1 5/24/1
f 25/25/1 84/4/1 87/8/1 24/23/1
f 26/12/1 81/1/1 84/4/1 25/25/1
f 90/26/2 91/27/2 94/28/2 93/29/2
f 91/27/2 92/30/2 95/31/2 94/28/2
f 93/29/2 94/28/2 97/32/2 96/33/2
f 94/28/2 95/31/2 98/34/2 97/32/2
f 2/35/2 17/36/2 90/26/2 44/37/2
f 17/36/2 16/38/2 91/27/2 90/26/2
f 16/38/2 15/39/2 92/30/2 91/27/2
f 15/39/2 1/40/2 30/41/2 92/30/2
f 92/30/2 30/41/2 31/42/2 95/31/2
f 95/31/2 31/42/2 32/43/2 98/34/2
f 98/34/2 32/43/2 3/44/2 21/45/2
f 97/32/2 98/34/2 21/45/2 22/46/2
f 96/33/2 97/32/2 22/46/2 23/47/2
f 42/48/2 96/33/2 23/47/2 4/49/2
f 43/50/2 93/29/2 96/33/2 42/48/2
f 44/37/2 90/26/2 93/29/2 43/50/2
s 1
f 45/51/3 46/52/3 49/53/4 48/54/4
f 46/55/3 47/56/3 50/57/4 49/58/4
f 48/54/4 49/53/4 52/59/5 51/60/5
f 49/58/4 50/57/4 53/61/5 52/62/5
f 1/63/6 41/64/6 45/51/3 30/65/3
f 41/64/6 40/66/6 46/52/3 45/51/3
f 40/67/6 39/68/6 47/56/3 46/55/3
f 39/68/6 5/69/6 38/70/3 47/56/3
f 47/56/3 38/70/3 37/71/4 50/57/4
f 50/57/4 37/71/4 36/72/5 53/61/5
f 53/61/5 36/72/5 7/73/7 29/74/7
f 52/62/5 53/61/5 29/74/7 28/75/7
f 51/60/5 52/59/5 28/76/7 27/77/7
f 32/78/5 51/60/5 27/77/7 3/79/7
f 31/80/4 48/54/4 51/60/5 32/78/5
f 30/65/3 45/51/3 48/54/4 31/80/4
f 54/81/8 55/82/9 58/83/9 57/84/8
f 55/82/9 56/85/10 59/86/10 58/83/9
f 57/87/8 58/88/9 61/89/9 60/90/8
f 58/88/9 59/91/10 62/92/10 61/89/9
f 4/93/11 23/94/8 54/81/8 35/95/11
f 23/94/8 22/96/9 55/82/9 54/81/8
f 22/96/9 21/97/10 56/85/10 55/82/9
f 21/97/10 3/98/7 27/99/7 56/85/10
f 56/85/10 27/99/7 28/100/7 59/86/10
f 59/91/10 28/101/7 29/102/7 62/92/10
f 62/92/10 29/102/7 7/103/7 20/104/10
f 61/89/9 62/92/10 20/104/10 19/105/9
f 60/90/8 61/89/9 19/105/9 18/106/8
f 33/107/11 60/90/8 18/106/8 8/108/11
f 34/109/11 57/87/8 60/90/8 33/107/11
f 35/95/11 54/81/8 57/84/8 34/110/11
f 63/111/12 64/112/12 67/113/13 66/114/13
f 64/115/12 65/116/12 68/117/13 67/118/13
f 66/114/13 67/113/13 70/119/14 69/120/14
f 67/118/13 68/117/13 71/121/14 70/122/14
f 6/123/15 14/124/15 63/111/12 9/125/12
f 14/124/15 13/126/15 64/112/12 63/111/12
f 13/127/15 12/128/15 65/116/12 64/115/12
f 12/128/15 2/129/15 44/130/12 65/116/12
f 65/116/12 44/130/12 43/131/13 68/117/13
f 68/117/13 43/131/13 42/132/14 71/121/14
f 71/121/14 42/132/14 4/93/11 35/95/11
f 70/122/14 71/121/14 35/95/11 34/110/11
f 69/120/14 70/119/14 34/109/11 33/107/11
f 11/133/14 69/120/14 33/107/11 8/108/11
f 10/134/13 66/114/13 69/120/14 11/133/14
f 9/125/12 63/111/12 66/114/13 10/134/13
f 72/135/16 73/136/17 76/137/17 75/138/16
f 73/136/17 74/139/18 77/140/18 76/137/17
f 75/141/16 76/142/17 79/143/17 78/144/16
f 76/142/17 77/145/18 80/146/18 79/143/17
f 6/123/15 26/147/16 72/135/16 14/124/15
f 26/147/16 25/148/17 73/136/17 72/135/16
f 25/148/17 24/149/18 74/139/18 73/136/17
f 24/149/18 5/69/6 39/68/6 74/139/18
f 74/139/18 39/68/6 40/67/6 77/140/18
f 77/145/18 40/66/6 41/64/6 80/146/18
f 80/146/18 41/64/6 1/63/6 15/150/18
f 79/143/17 80/146/18 15/150/18 16/151/17
f 78/144/16 79/143/17 16/151/17 17/152/16
f 12/128/15 78/144/16 17/152/16 2/129/15
f 13/127/15 75/141/16 78/144/16 12/128/15
f 14/124/15 72/135/16 75/138/16 13/126/15
