# Blender v2.82 (sub 6) OBJ File: 'concrete_barrier.blend'
# www.blender.org
g barrier_normal_lod_mesh.004
v -1.000722 0.199638 0.295158
v -0.999969 0.003013 0.296987
v -0.999969 0.996992 -0.097211
v -1.000722 0.199638 -0.295158
v -0.999969 0.003013 -0.296987
v -0.999969 0.996992 0.097211
v -1.000722 0.384804 0.145224
v -1.000722 0.384804 -0.145224
v -0.406432 1.000000 0.000100
v -0.430943 1.000000 0.008037
v -0.430976 1.000000 -0.007937
v -0.429463 1.056256 0.000050
v -0.448142 1.041353 0.008012
v -0.448167 1.041333 -0.007950
v -0.500007 1.090239 -0.000000
v -0.500002 1.066328 0.008012
v -0.500004 1.066287 -0.007963
v -0.570547 1.056257 0.000025
v -0.551833 1.041333 0.007969
v -0.551813 1.041319 -0.007913
v -0.593568 1.000000 0.000100
v -0.569023 1.000000 0.008013
v -0.568991 1.000000 -0.007913
v 1.000745 0.199638 0.295158
v 0.999992 0.003013 0.296987
v 0.999992 0.996992 -0.097211
v 1.000745 0.199638 -0.295158
v 0.999992 0.003013 -0.296987
v 0.999992 0.996992 0.097211
v 1.000745 0.384804 0.145224
v 1.000745 0.384804 -0.145224
v 0.000000 0.003013 -0.296987
v 0.000000 0.199638 -0.295158
v 0.000000 0.996992 0.097211
v 0.000000 0.384804 0.145224
v 0.406432 1.000000 0.000100
v 0.430943 1.000000 0.008037
v 0.430976 1.000000 -0.007937
v 0.429463 1.056256 0.000050
v 0.448142 1.041353 0.008012
v 0.448167 1.041333 -0.007950
v 0.500007 1.090239 -0.000000
v 0.500002 1.066328 0.008012
v 0.500004 1.066287 -0.007963
v 0.570547 1.056257 0.000025
v 0.551833 1.041333 0.007969
v 0.551813 1.041319 -0.007913
v 0.593568 1.000000 0.000100
v 0.569023 1.000000 0.008013
v 0.568991 1.000000 -0.007913
v 0.000000 0.199638 0.295158
v 0.000000 0.003013 0.296987
v 0.000000 0.996992 -0.097211
v 0.000000 0.384804 -0.145224
vt 0.983717 0.202334
vt 0.514151 0.202334
vt 0.514151 0.107684
vt 0.983717 0.107683
vt 0.313930 0.890462
vt 0.382084 0.808430
vt 0.517917 0.808430
vt 0.586070 0.890462
vt 0.695038 0.518912
vt 0.695038 0.983877
vt 0.604962 0.983877
vt 0.604962 0.518912
vt 0.310622 0.983877
vt 0.310622 0.894683
vt 0.589378 0.894683
vt 0.589378 0.983877
vt 0.485849 0.103908
vt 0.016283 0.103908
vt 0.016283 0.016361
vt 0.485849 0.016361
vt 0.983717 0.103908
vt 0.514151 0.103908
vt 0.514151 0.016361
vt 0.983717 0.016361
vt 0.383126 0.804209
vt 0.404806 0.521022
vt 0.495194 0.521022
vt 0.516874 0.804209
vt 0.016283 0.107683
vt 0.485849 0.107683
vt 0.485849 0.202334
vt 0.016283 0.202334
vt 0.983717 0.202334
vt 0.983717 0.107683
vt 0.313930 0.890462
vt 0.586070 0.890462
vt 0.517917 0.808430
vt 0.382084 0.808430
vt 0.604962 0.983877
vt 0.695038 0.983877
vt 0.310622 0.983877
vt 0.589378 0.983877
vt 0.589378 0.894683
vt 0.310622 0.894683
vt 0.016283 0.016361
vt 0.016283 0.103908
vt 0.983717 0.103908
vt 0.983717 0.016361
vt 0.383126 0.804209
vt 0.516874 0.804209
vt 0.495194 0.521022
vt 0.404806 0.521022
vt 0.016283 0.107683
vt 0.016283 0.202334
vt 0.485849 0.206438
vt 0.016283 0.488513
vt 0.016283 0.206438
vt 0.983718 0.488513
vt 0.514151 0.206438
vt 0.983717 0.206438
vt 0.289378 0.985988
vt 0.289378 0.521022
vt 0.010622 0.521022
vt 0.010622 0.985988
vt 0.016283 0.206438
vt 0.016283 0.488513
vt 0.485849 0.488513
vt 0.983718 0.488513
vt 0.983717 0.206438
vt 0.514151 0.488513
vt 0.289378 0.521022
vt 0.010622 0.521022
vt 0.775169 0.784251
vt 0.793857 0.784251
vt 0.793698 0.813142
vt 0.775169 0.813142
vt 0.775169 0.608120
vt 0.792926 0.608121
vt 0.792925 0.636807
vt 0.775169 0.636807
vt 0.775169 0.725337
vt 0.793698 0.725337
vt 0.793857 0.754228
vt 0.775169 0.754228
vt 0.819386 0.784251
vt 0.835793 0.784251
vt 0.835634 0.813142
vt 0.819544 0.813142
vt 0.820317 0.608120
vt 0.834861 0.608120
vt 0.834861 0.636807
vt 0.820317 0.636807
vt 0.819544 0.725337
vt 0.835634 0.725337
vt 0.835793 0.754228
vt 0.819385 0.754228
vt 0.861321 0.784251
vt 0.877729 0.784251
vt 0.877570 0.813142
vt 0.861480 0.813141
vt 0.862253 0.608120
vt 0.876797 0.608120
vt 0.876797 0.636807
vt 0.862253 0.636807
vt 0.861480 0.725338
vt 0.877570 0.725337
vt 0.877729 0.754228
vt 0.861321 0.754228
vt 0.903257 0.784252
vt 0.921945 0.784251
vt 0.921945 0.813142
vt 0.903416 0.813142
vt 0.904189 0.608121
vt 0.921945 0.608120
vt 0.921945 0.636807
vt 0.904189 0.636807
vt 0.903416 0.725337
vt 0.921945 0.725337
vt 0.921945 0.754228
vt 0.903257 0.754228
vt 0.775169 0.784251
vt 0.775169 0.813142
vt 0.793698 0.813142
vt 0.793857 0.784251
vt 0.775169 0.608120
vt 0.775169 0.636807
vt 0.792925 0.636807
vt 0.792926 0.608121
vt 0.775169 0.725337
vt 0.775169 0.754228
vt 0.793857 0.754228
vt 0.793698 0.725337
vt 0.819386 0.784251
vt 0.819544 0.813142
vt 0.835634 0.813142
vt 0.835793 0.784251
vt 0.820317 0.608120
vt 0.820317 0.636807
vt 0.834861 0.636807
vt 0.834861 0.608120
vt 0.819544 0.725337
vt 0.819385 0.754228
vt 0.835793 0.754228
vt 0.835634 0.725337
vt 0.861321 0.784251
vt 0.861480 0.813141
vt 0.877570 0.813142
vt 0.877729 0.784251
vt 0.862253 0.608120
vt 0.862253 0.636807
vt 0.876797 0.636807
vt 0.876797 0.608120
vt 0.861480 0.725338
vt 0.861321 0.754228
vt 0.877729 0.754228
vt 0.877570 0.725337
vt 0.903257 0.784252
vt 0.903416 0.813142
vt 0.921945 0.813142
vt 0.921945 0.784251
vt 0.904189 0.608121
vt 0.904189 0.636807
vt 0.921945 0.636807
vt 0.921945 0.608120
vt 0.903416 0.725337
vt 0.903257 0.754228
vt 0.921945 0.754228
vt 0.921945 0.725337
vn 0.0000 0.6293 -0.7772
vn -1.0000 -0.0000 0.0000
vn 0.0000 1.0000 0.0000
vn -1.0000 -0.0038 0.0000
vn 0.0000 0.0093 1.0000
vn 0.0000 0.0093 -1.0000
vn -1.0000 0.0012 0.0000
vn -0.0000 0.6293 0.7772
vn 1.0000 0.0000 0.0000
vn 1.0000 -0.0038 0.0000
vn 1.0000 0.0012 0.0000
vn -0.0000 0.0782 0.9969
vn 0.0000 0.0782 -0.9969
vn 0.0000 -1.0000 0.0000
vn 0.9245 0.3812 0.0013
vn 0.7371 0.6758 0.0002
vn -0.3182 -0.2903 0.9025
vn -0.4163 -0.1735 0.8925
vn -0.3182 -0.2923 -0.9018
vn -0.4166 -0.1749 -0.8921
vn 0.0001 1.0000 -0.0006
vn -0.0000 -0.3882 0.9216
vn 0.0004 -0.3909 -0.9204
vn -0.7371 0.6758 -0.0003
vn 0.3189 -0.2907 0.9021
vn 0.3190 -0.2929 -0.9014
vn -0.9244 0.3815 0.0012
vn 0.4170 -0.1734 0.8922
vn 0.4176 -0.1754 -0.8915
vn -0.9245 0.3812 0.0013
vn 0.4163 -0.1735 0.8925
vn 0.3182 -0.2903 0.9025
vn -0.7371 0.6758 0.0002
vn 0.4166 -0.1749 -0.8921
vn 0.3182 -0.2923 -0.9018
vn -0.0001 1.0000 -0.0006
vn -0.0004 -0.3909 -0.9204
vn -0.3189 -0.2907 0.9021
vn 0.7371 0.6758 -0.0003
vn -0.3190 -0.2929 -0.9014
vn -0.4170 -0.1734 0.8922
vn 0.9244 0.3815 0.0012
vn -0.4176 -0.1754 -0.8915
s off
f 8/1/1 54/2/1 33/3/1 4/4/1
f 1/5/2 7/6/2 8/7/2 4/8/2
f 53/9/3 3/10/3 6/11/3 34/12/3
f 2/13/4 1/14/4 4/15/4 5/16/4
f 51/17/5 1/18/5 2/19/5 52/20/5
f 4/21/6 33/22/6 32/23/6 5/24/6
f 7/25/7 6/26/7 3/27/7 8/28/7
f 1/29/8 51/30/8 35/31/8 7/32/8
f 31/33/1 27/34/1 33/3/1 54/2/1
f 24/35/9 27/36/9 31/37/9 30/38/9
f 53/9/3 34/12/3 29/39/3 26/40/3
f 25/41/10 28/42/10 27/43/10 24/44/10
f 51/17/5 52/20/5 25/45/5 24/46/5
f 27/47/6 28/48/6 32/23/6 33/22/6
f 30/49/11 31/50/11 26/51/11 29/52/11
f 24/53/8 30/54/8 35/31/8 51/30/8
f 35/55/12 6/56/12 7/57/12
f 3/58/13 54/59/13 8/60/13
f 32/61/14 28/62/14 25/63/14 52/64/14
f 30/65/12 29/66/12 35/55/12
f 34/67/12 6/56/12 35/55/12
f 29/66/12 34/67/12 35/55/12
f 26/68/13 31/69/13 54/59/13
f 53/70/13 26/68/13 54/59/13
f 3/58/13 53/70/13 54/59/13
f 5/71/14 32/61/14 52/64/14 2/72/14
s 1
f 9/73/15 12/74/16 13/75/17 10/76/18
f 10/77/18 13/78/17 14/79/19 11/80/20
f 11/81/20 14/82/19 12/83/16 9/84/15
f 12/85/16 15/86/21 16/87/22 13/88/17
f 13/89/17 16/90/22 17/91/23 14/92/19
f 14/93/19 17/94/23 15/95/21 12/96/16
f 15/97/21 18/98/24 19/99/25 16/100/22
f 16/101/22 19/102/25 20/103/26 17/104/23
f 17/105/23 20/106/26 18/107/24 15/108/21
f 18/109/24 21/110/27 22/111/28 19/112/25
f 19/113/25 22/114/28 23/115/29 20/116/26
f 20/117/26 23/118/29 21/119/27 18/120/24
f 36/121/30 37/122/31 40/123/32 39/124/33
f 37/125/31 38/126/34 41/127/35 40/128/32
f 38/129/34 36/130/30 39/131/33 41/132/35
f 39/133/33 40/134/32 43/135/22 42/136/36
f 40/137/32 41/138/35 44/139/37 43/140/22
f 41/141/35 39/142/33 42/143/36 44/144/37
f 42/145/36 43/146/22 46/147/38 45/148/39
f 43/149/22 44/150/37 47/151/40 46/152/38
f 44/153/37 42/154/36 45/155/39 47/156/40
f 45/157/39 46/158/38 49/159/41 48/160/42
f 46/161/38 47/162/40 50/163/43 49/164/41
f 47/165/40 45/166/39 48/167/42 50/168/43
